<?xml version="1.0" encoding="UTF-8" standalone="no"?>
<!-- Generator: Adobe Illustrator 13.0.2, SVG Export Plug-In . SVG Version: 6.00 Build 14948)  -->
<svg xmlns:dc="http://purl.org/dc/elements/1.1/" xmlns:cc="http://creativecommons.org/ns#" xmlns:rdf="http://www.w3.org/1999/02/22-rdf-syntax-ns#" xmlns:svg="http://www.w3.org/2000/svg" xmlns="http://www.w3.org/2000/svg" xmlns:xlink="http://www.w3.org/1999/xlink" xmlns:sodipodi="http://sodipodi.sourceforge.net/DTD/sodipodi-0.dtd" xmlns:inkscape="http://www.inkscape.org/namespaces/inkscape" version="1.0" id="svg1342" inkscape:export-xdpi="12.871935" sodipodi:docname="pexeso.svg" sodipodi:version="0.32" inkscape:version="0.48.0 r9654" inkscape:export-ydpi="12.871935" inkscape:export-filename="O:\PETRA\Postizene_hracky\pexeso.png" inkscape:output_extension="org.inkscape.output.svg.inkscape" x="0px" y="0px" width="568.20135" height="371.58173" viewBox="0 0 568.20133 371.58172" xml:space="preserve"><title id="title3249">Pexeso card game</title><metadata id="metadata48"><rdf:RDF><cc:Work rdf:about=""><dc:format>image/svg+xml</dc:format><dc:type rdf:resource="http://purl.org/dc/dcmitype/StillImage"/><dc:title>Pexeso card game</dc:title><dc:creator><cc:Agent><dc:title>Jan Helebrant</dc:title></cc:Agent></dc:creator><dc:rights><cc:Agent><dc:title>Jan Helebrant</dc:title></cc:Agent></dc:rights><dc:publisher><cc:Agent><dc:title>Jan Helebrant</dc:title></cc:Agent></dc:publisher><dc:subject><rdf:Bag><rdf:li>game</rdf:li><rdf:li>concentration</rdf:li><rdf:li>pairs</rdf:li><rdf:li>memory</rdf:li></rdf:Bag></dc:subject><cc:license rdf:resource="http://creativecommons.org/licenses/publicdomain/"/></cc:Work><cc:License rdf:about="http://creativecommons.org/licenses/publicdomain/"><cc:permits rdf:resource="http://creativecommons.org/ns#Reproduction"/><cc:permits rdf:resource="http://creativecommons.org/ns#Distribution"/><cc:permits rdf:resource="http://creativecommons.org/ns#DerivativeWorks"/></cc:License></rdf:RDF></metadata><defs id="defs46"><linearGradient id="linearGradient2060"><stop style="stop-color:#ebf0d0;stop-opacity:1.0000000;" offset="0.0000000" id="stop2062"/><stop style="stop-color:#ffffeb;stop-opacity:1.0000000;" offset="1.0000000" id="stop2064"/></linearGradient><pattern width="14.142157" patternUnits="userSpaceOnUse" patternTransform="translate(15.00000,-5.000000)" id="pattern10642" height="13.750009"><g transform="translate(31.25001,-2.928924)" style="fill:#ffffff;fill-opacity:1.0000000" id="g10644"><rect y="21.668146" x="-17.526024" width="5.0000029" transform="matrix(0.707107,0.707107,-0.707107,0.707107,0.000000,0.000000)" style="stroke:none;stroke-width:1.2500000;stroke-miterlimit:4.0000000;stroke-opacity:1.0000000" id="rect10646" height="5.0000029"/><rect y="26.390863" x="-12.803310" width="5.0000057" transform="matrix(0.707107,0.707107,-0.707107,0.707107,0.000000,0.000000)" style="stroke:none;stroke-width:1.2500000;stroke-miterlimit:4.0000000;stroke-opacity:1.0000000" id="rect10648" height="5.0000057"/><rect y="16.668142" x="-12.526019" width="5.0000057" transform="matrix(0.707107,0.707107,-0.707107,0.707107,0.000000,0.000000)" style="stroke:none;stroke-width:1.2500000;stroke-miterlimit:4.0000000;stroke-opacity:1.0000000" id="rect10650" height="5.0000057"/><rect y="21.390858" x="-7.8033042" width="5.0000057" transform="matrix(0.707107,0.707107,-0.707107,0.707107,0.000000,0.000000)" style="stroke:none;stroke-width:1.2500000;stroke-miterlimit:4.0000000;stroke-opacity:1.0000000" id="rect10652" height="5.0000057"/></g></pattern><linearGradient id="linearGradient2060-1"><stop style="stop-color:#ebf0d0;stop-opacity:1.0000000;" offset="0.0000000" id="stop2062-7"/><stop style="stop-color:#ffffeb;stop-opacity:1.0000000;" offset="1.0000000" id="stop2064-4"/></linearGradient><linearGradient id="linearGradient8303"><stop style="stop-color:#000086;stop-opacity:1.0000000;" offset="0.0000000" id="stop8314"/><stop style="stop-color:#005aff;stop-opacity:1.0000000;" offset="1.0000000" id="stop8316"/></linearGradient><linearGradient inkscape:collect="always" xlink:href="#linearGradient2060-1" id="linearGradient3511" gradientUnits="userSpaceOnUse" gradientTransform="translate(0,-1)" x1="2" y1="63.099518" x2="109" y2="128.69501"/><linearGradient inkscape:collect="always" xlink:href="#linearGradient8303" id="linearGradient3513" gradientUnits="userSpaceOnUse" gradientTransform="scale(0.854242,1.170628)" x1="138.23376" y1="146.6171" x2="36.519855" y2="18.728254"/><linearGradient inkscape:collect="always" xlink:href="#linearGradient8303" id="linearGradient3515" gradientUnits="userSpaceOnUse" gradientTransform="scale(0.855373,1.169081)" x1="22.029089" y1="17.152563" x2="146.39938" y2="140.45406"/><linearGradient inkscape:collect="always" xlink:href="#linearGradient2060" id="linearGradient3517" gradientUnits="userSpaceOnUse" gradientTransform="translate(0,-1)" x1="2" y1="63.099518" x2="109" y2="128.69501"/><linearGradient inkscape:collect="always" xlink:href="#linearGradient2060-1" id="linearGradient3537" gradientUnits="userSpaceOnUse" gradientTransform="translate(0,-1)" x1="2" y1="63.099518" x2="109" y2="128.69501"/><linearGradient inkscape:collect="always" xlink:href="#linearGradient8303" id="linearGradient3539" gradientUnits="userSpaceOnUse" gradientTransform="scale(0.854242,1.170628)" x1="138.23376" y1="146.6171" x2="36.519855" y2="18.728254"/><linearGradient inkscape:collect="always" xlink:href="#linearGradient8303" id="linearGradient3541" gradientUnits="userSpaceOnUse" gradientTransform="scale(0.855373,1.169081)" x1="22.029089" y1="17.152563" x2="146.39938" y2="140.45406"/><linearGradient inkscape:collect="always" xlink:href="#linearGradient2060-1" id="linearGradient3579" gradientUnits="userSpaceOnUse" gradientTransform="translate(0,-1)" x1="2" y1="63.099518" x2="109" y2="128.69501"/><linearGradient inkscape:collect="always" xlink:href="#linearGradient8303" id="linearGradient3581" gradientUnits="userSpaceOnUse" gradientTransform="scale(0.854242,1.170628)" x1="138.23376" y1="146.6171" x2="36.519855" y2="18.728254"/><linearGradient inkscape:collect="always" xlink:href="#linearGradient8303" id="linearGradient3583" gradientUnits="userSpaceOnUse" gradientTransform="scale(0.855373,1.169081)" x1="22.029089" y1="17.152563" x2="146.39938" y2="140.45406"/><linearGradient inkscape:collect="always" xlink:href="#linearGradient2060-1" id="linearGradient3585" gradientUnits="userSpaceOnUse" gradientTransform="translate(0,-1)" x1="2" y1="63.099518" x2="109" y2="128.69501"/><linearGradient inkscape:collect="always" xlink:href="#linearGradient8303" id="linearGradient3587" gradientUnits="userSpaceOnUse" gradientTransform="scale(0.854242,1.170628)" x1="138.23376" y1="146.6171" x2="36.519855" y2="18.728254"/><linearGradient inkscape:collect="always" xlink:href="#linearGradient8303" id="linearGradient3589" gradientUnits="userSpaceOnUse" gradientTransform="scale(0.855373,1.169081)" x1="22.029089" y1="17.152563" x2="146.39938" y2="140.45406"/><linearGradient inkscape:collect="always" xlink:href="#linearGradient2060-1" id="linearGradient3609" gradientUnits="userSpaceOnUse" gradientTransform="translate(0,-1)" x1="2" y1="63.099518" x2="109" y2="128.69501"/><linearGradient inkscape:collect="always" xlink:href="#linearGradient8303" id="linearGradient3611" gradientUnits="userSpaceOnUse" gradientTransform="scale(0.854242,1.170628)" x1="138.23376" y1="146.6171" x2="36.519855" y2="18.728254"/><linearGradient inkscape:collect="always" xlink:href="#linearGradient8303" id="linearGradient3613" gradientUnits="userSpaceOnUse" gradientTransform="scale(0.855373,1.169081)" x1="22.029089" y1="17.152563" x2="146.39938" y2="140.45406"/><linearGradient inkscape:collect="always" xlink:href="#linearGradient2060-1" id="linearGradient3669" gradientUnits="userSpaceOnUse" gradientTransform="translate(0,-1)" x1="2" y1="63.099518" x2="109" y2="128.69501"/><linearGradient inkscape:collect="always" xlink:href="#linearGradient8303" id="linearGradient3671" gradientUnits="userSpaceOnUse" gradientTransform="scale(0.854242,1.170628)" x1="138.23376" y1="146.6171" x2="36.519855" y2="18.728254"/><linearGradient inkscape:collect="always" xlink:href="#linearGradient8303" id="linearGradient3673" gradientUnits="userSpaceOnUse" gradientTransform="scale(0.855373,1.169081)" x1="22.029089" y1="17.152563" x2="146.39938" y2="140.45406"/><linearGradient inkscape:collect="always" xlink:href="#linearGradient2060-1" id="linearGradient3681" gradientUnits="userSpaceOnUse" gradientTransform="translate(0,-1)" x1="2" y1="63.099518" x2="109" y2="128.69501"/><linearGradient inkscape:collect="always" xlink:href="#linearGradient8303" id="linearGradient3683" gradientUnits="userSpaceOnUse" gradientTransform="scale(0.854242,1.170628)" x1="138.23376" y1="146.6171" x2="36.519855" y2="18.728254"/><linearGradient inkscape:collect="always" xlink:href="#linearGradient8303" id="linearGradient3685" gradientUnits="userSpaceOnUse" gradientTransform="scale(0.855373,1.169081)" x1="22.029089" y1="17.152563" x2="146.39938" y2="140.45406"/><linearGradient inkscape:collect="always" xlink:href="#linearGradient2060" id="linearGradient3781" gradientUnits="userSpaceOnUse" gradientTransform="translate(0,-1)" x1="2" y1="63.099518" x2="109" y2="128.69501"/><linearGradient inkscape:collect="always" xlink:href="#linearGradient2060-1" id="linearGradient3369" gradientUnits="userSpaceOnUse" gradientTransform="translate(0,-1)" x1="2" y1="63.099518" x2="109" y2="128.69501"/><linearGradient inkscape:collect="always" xlink:href="#linearGradient8303" id="linearGradient3371" gradientUnits="userSpaceOnUse" gradientTransform="scale(0.854242,1.170628)" x1="138.23376" y1="146.6171" x2="36.519855" y2="18.728254"/><linearGradient inkscape:collect="always" xlink:href="#linearGradient8303" id="linearGradient3373" gradientUnits="userSpaceOnUse" gradientTransform="scale(0.855373,1.169081)" x1="22.029089" y1="17.152563" x2="146.39938" y2="140.45406"/><linearGradient inkscape:collect="always" xlink:href="#linearGradient2060-1" id="linearGradient3393" gradientUnits="userSpaceOnUse" gradientTransform="translate(0,-1)" x1="2" y1="63.099518" x2="109" y2="128.69501"/><linearGradient inkscape:collect="always" xlink:href="#linearGradient8303" id="linearGradient3395" gradientUnits="userSpaceOnUse" gradientTransform="scale(0.854242,1.170628)" x1="138.23376" y1="146.6171" x2="36.519855" y2="18.728254"/><linearGradient inkscape:collect="always" xlink:href="#linearGradient8303" id="linearGradient3397" gradientUnits="userSpaceOnUse" gradientTransform="scale(0.855373,1.169081)" x1="22.029089" y1="17.152563" x2="146.39938" y2="140.45406"/><linearGradient inkscape:collect="always" xlink:href="#linearGradient2060-1" id="linearGradient3418" gradientUnits="userSpaceOnUse" gradientTransform="translate(0,-1)" x1="2" y1="63.099518" x2="109" y2="128.69501"/><linearGradient inkscape:collect="always" xlink:href="#linearGradient8303" id="linearGradient3420" gradientUnits="userSpaceOnUse" gradientTransform="scale(0.854242,1.170628)" x1="138.23376" y1="146.6171" x2="36.519855" y2="18.728254"/><linearGradient inkscape:collect="always" xlink:href="#linearGradient8303" id="linearGradient3422" gradientUnits="userSpaceOnUse" gradientTransform="scale(0.855373,1.169081)" x1="22.029089" y1="17.152563" x2="146.39938" y2="140.45406"/><linearGradient inkscape:collect="always" xlink:href="#linearGradient2060-1" id="linearGradient3478" gradientUnits="userSpaceOnUse" gradientTransform="translate(0,-1)" x1="2" y1="63.099518" x2="109" y2="128.69501"/><linearGradient inkscape:collect="always" xlink:href="#linearGradient8303" id="linearGradient3480" gradientUnits="userSpaceOnUse" gradientTransform="scale(0.854242,1.170628)" x1="138.23376" y1="146.6171" x2="36.519855" y2="18.728254"/><linearGradient inkscape:collect="always" xlink:href="#linearGradient8303" id="linearGradient3482" gradientUnits="userSpaceOnUse" gradientTransform="scale(0.855373,1.169081)" x1="22.029089" y1="17.152563" x2="146.39938" y2="140.45406"/><linearGradient inkscape:collect="always" xlink:href="#linearGradient2060-1" id="linearGradient3484" gradientUnits="userSpaceOnUse" gradientTransform="translate(0,-1)" x1="2" y1="63.099518" x2="109" y2="128.69501"/><linearGradient inkscape:collect="always" xlink:href="#linearGradient8303" id="linearGradient3486" gradientUnits="userSpaceOnUse" gradientTransform="scale(0.854242,1.170628)" x1="138.23376" y1="146.6171" x2="36.519855" y2="18.728254"/><linearGradient inkscape:collect="always" xlink:href="#linearGradient8303" id="linearGradient3488" gradientUnits="userSpaceOnUse" gradientTransform="scale(0.855373,1.169081)" x1="22.029089" y1="17.152563" x2="146.39938" y2="140.45406"/><linearGradient inkscape:collect="always" xlink:href="#linearGradient2060-1" id="linearGradient3490" gradientUnits="userSpaceOnUse" gradientTransform="translate(0,-1)" x1="2" y1="63.099518" x2="109" y2="128.69501"/><linearGradient inkscape:collect="always" xlink:href="#linearGradient8303" id="linearGradient3492" gradientUnits="userSpaceOnUse" gradientTransform="scale(0.854242,1.170628)" x1="138.23376" y1="146.6171" x2="36.519855" y2="18.728254"/><linearGradient inkscape:collect="always" xlink:href="#linearGradient8303" id="linearGradient3494" gradientUnits="userSpaceOnUse" gradientTransform="scale(0.855373,1.169081)" x1="22.029089" y1="17.152563" x2="146.39938" y2="140.45406"/></defs>
<sodipodi:namedview borderopacity="1.0" inkscape:pageopacity="0.0" inkscape:zoom="1.0282156" inkscape:cx="10.681016" inkscape:cy="193.65422" inkscape:current-layer="layer1" showgrid="false" inkscape:window-width="1024" pagecolor="#ffffff" inkscape:window-height="690" inkscape:pageshadow="2" inkscape:window-x="-4" inkscape:window-y="-4" bordercolor="#666666" inkscape:document-units="mm" id="namedview1346" units="cm" inkscape:window-maximized="1" fit-margin-top="0" fit-margin-left="0" fit-margin-right="0" fit-margin-bottom="0">
	</sodipodi:namedview>
<g id="layer1" transform="translate(-165.04049,-162.146)" inkscape:label="Layer 1" inkscape:groupmode="layer">
	
		
<g transform="matrix(0.67333529,0,-0.09611119,0.49520148,446.36993,191.85409)" id="g3399"><g id="g3401"><path inkscape:connector-curvature="0" d="m 21,5 103,0 c 8.864,0 16,7.136 16,16 l 0,153 c 0,8.864 -7.136,16 -16,16 L 21,190 C 12.136,190 5,182.864 5,174 L 5,21 C 5,12.136 12.136,5 21,5 z" id="path3403" style="fill:#000000;fill-opacity:0.49803922;stroke:none"/><path inkscape:connector-curvature="0" d="m 17,1 103,0 c 8.864,0 16,7.136 16,16 l 0,153 c 0,8.864 -7.136,16 -16,16 L 17,186 C 8.136,186 1,178.864 1,170 L 1,17 C 1,8.136 8.136,1 17,1 z" id="path3405" style="fill:#ffffff;fill-opacity:1;stroke:none"/><path inkscape:connector-curvature="0" d="m 19,3 103,0 c 8.864,0 16,7.136 16,16 l 0,153 c 0,8.864 -7.136,16 -16,16 L 19,188 C 10.136,188 3,180.864 3,172 L 3,19 C 3,10.136 10.136,3 19,3 z" id="path3407" style="fill:#c7891f;fill-opacity:1;stroke:none"/><path inkscape:connector-curvature="0" d="m 18,1.9999995 103,0 c 8.864,0 16,7.136 16,16.0000005 l 0,153 c 0,8.864 -7.136,16 -16,16 L 18,187 C 9.136,187 2,179.864 2,171 L 2,18 C 2,9.1359995 9.136,1.9999995 18,1.9999995 z" id="path3409" style="fill:url(#linearGradient3511);fill-opacity:1;stroke:none"/></g><path inkscape:connector-curvature="0" d="m 22.166666,10 94.416664,0 c 8.12534,0 14.66667,6.541333 14.66667,14.666666 l 0,140.249994 c 0,8.12534 -6.54133,14.66667 -14.66667,14.66667 l -94.416664,0 C 14.041333,179.58333 7.5,173.042 7.5,164.91666 L 7.5,24.666666 C 7.5,16.541333 14.041333,10 22.166666,10 z" id="path3411" style="fill:url(#linearGradient3513);fill-opacity:1;stroke:none"/><path inkscape:connector-curvature="0" d="m 22.166666,10 94.416664,0 c 8.12534,0 14.66667,6.541333 14.66667,14.666666 l 0,140.249994 c 0,8.12534 -6.54133,14.66667 -14.66667,14.66667 l -94.416664,0 C 14.041333,179.58333 7.5,173.042 7.5,164.91666 L 7.5,24.666666 C 7.5,16.541333 14.041333,10 22.166666,10 z" id="path3413" style="fill:url(#pattern10642);fill-opacity:1;stroke:none"/><path inkscape:connector-curvature="0" d="M 22.15625,9.375 C 13.695478,9.375 6.875,16.195478 6.875,24.65625 l 0,140.25 c 0,8.46078 6.820478,15.3125 15.28125,15.3125 l 94.4375,0 c 8.46078,0 15.28125,-6.85172 15.28125,-15.3125 l 0,-140.25 C 131.875,16.195478 125.05453,9.375 116.59375,9.375 l -94.4375,0 z m 0,1.25 94.4375,0 c 7.7899,0 14.03125,6.241356 14.03125,14.03125 l 0,140.25 c 0,7.7899 -6.24135,14.0625 -14.03125,14.0625 l -94.4375,0 c -7.789894,0 -14.03125,-6.2726 -14.03125,-14.0625 l 0,-140.25 C 8.125,16.866356 14.366356,10.625 22.15625,10.625 z" id="path3415" style="fill:url(#linearGradient3515);fill-opacity:1;stroke:none"/></g><g id="g3417" transform="matrix(0.6603512,0,-0.12816428,0.6603512,136.00993,188.85331)"><g id="g3419" transform="matrix(1.0196624,0,0,0.74990624,320.95423,4.5442209)"><g id="g3421"><path style="fill:#000000;fill-opacity:0.49803922;stroke:none" id="path3423" d="m 21,5 103,0 c 8.864,0 16,7.136 16,16 l 0,153 c 0,8.864 -7.136,16 -16,16 L 21,190 C 12.136,190 5,182.864 5,174 L 5,21 C 5,12.136 12.136,5 21,5 z" inkscape:connector-curvature="0"/><path style="fill:#ffffff;fill-opacity:1;stroke:none" id="path3425" d="m 17,1 103,0 c 8.864,0 16,7.136 16,16 l 0,153 c 0,8.864 -7.136,16 -16,16 L 17,186 C 8.136,186 1,178.864 1,170 L 1,17 C 1,8.136 8.136,1 17,1 z" inkscape:connector-curvature="0"/><path style="fill:#c7891f;fill-opacity:1;stroke:none" id="path3427" d="m 19,3 103,0 c 8.864,0 16,7.136 16,16 l 0,153 c 0,8.864 -7.136,16 -16,16 L 19,188 C 10.136,188 3,180.864 3,172 L 3,19 C 3,10.136 10.136,3 19,3 z" inkscape:connector-curvature="0"/><path style="fill:url(#linearGradient3517);fill-opacity:1;stroke:none" id="path3429" d="m 18,1.9999995 103,0 c 8.864,0 16,7.136 16,16.0000005 l 0,153 c 0,8.864 -7.136,16 -16,16 L 18,187 C 9.136,187 2,179.864 2,171 L 2,18 C 2,9.1359995 9.136,1.9999995 18,1.9999995 z" inkscape:connector-curvature="0"/></g><g id="g3431"><g transform="translate(333.5,184.5)" id="g3433"/><g id="g3435"/></g></g><g transform="matrix(0.20837128,0,0,0.20837128,327.99875,-11.051484)" id="g3437"><path d="m 344.427,534.692 51.63,82.284 66.957,33.882 101.646,-33.075 61.31,-95.192 -6.453,-88.739 -50.017,-111.326 -23.394,-44.369 -125.041,1.613 -6.454,37.916 -43.562,73.41 -29.042,79.865 2.42,63.731 z" style="fill:#ffffff;fill-opacity:1;stroke:none" id="path3439" transform="translate(-188.771,11.2936)" inkscape:connector-curvature="0"/><g style="fill:#000000;fill-opacity:1;stroke:none" id="g3441" transform="translate(107.656,-154.861)"><path style="fill:#c1c1bf" d="m 329.336,727.552 c -14.112,-1.224 -25.2,-11.736 -26.208,-32.616 3.24,-55.44 6.48,-112.824 -31.896,-149.832 -5.976,-46.08 -27.216,-63 -37.224,-92.592 l -15.768,-11.304 18.864,-29.52 8.064,0.216 78.768,159.264 16.488,80.28 -11.088,76.104 z" id="path3443" inkscape:connector-curvature="0"/><path style="fill:#c1c1bf" d="m 136.232,439.696 c -2.376,15.552 -3.672,30.816 -1.44,45.576 -16.416,22.32 -28.872,44.856 -30.312,68.04 -12.456,33.192 -42.048,61.272 -36.936,126.792 16.632,17.352 39.888,33.48 59.832,50.256 25.056,20.952 10.152,48.6 -25.128,42.048 -7.848,-8.64 -25.632,-62.784 -59.328,-96.12 l 6.624,-43.704 31.824,-85.176 39.6,-63.36 4.392,-27.36 -5.544,-69.912 4.608,-25.56 11.808,78.48 0,0 z" id="path3445" inkscape:connector-curvature="0"/><path style="fill:#c1c1bf" d="m 115.64,341.416 c 0.936,-5.04 2.16,-9.792 3.672,-14.256 l 2.376,15.624 -6.048,-1.368 z" id="path3447" inkscape:connector-curvature="0"/><path style="fill:#c1c1bf" d="m 120.968,500.464 c -12.6,23.328 -16.992,45.792 11.952,49.752 -15.912,3.672 -35.712,18.432 -55.728,43.272 l 0.432,-50.472 23.832,-39.744 19.512,-2.808 z" id="path3449" inkscape:connector-curvature="0"/><path style="fill:#c1c1bf" d="m -33.256,818.488 c 43.776,19.656 74.664,18.576 102.528,32.472 22.032,11.592 44.28,10.224 57.672,-3.816 11.376,-14.688 19.8,-15.408 36.576,-16.92 27.432,-1.656 54.216,-1.944 78.408,0.576 l 27.648,2.232 c -0.504,31.032 58.464,34.848 75.816,11.304 20.952,-24.912 49.752,-36.072 74.448,-54.144 L 289.304,725.536 c -33.48,80.928 -158.256,102.096 -175.536,37.728 l -147.024,55.224 z" id="path3451" inkscape:connector-curvature="0"/><path style="fill:#c1c1bf" d="m 286.424,711.568 c -12.6,-0.072 -25.488,4.032 -24.48,20.592 l 4.248,44.28 38.232,-19.8 -18,-45.072 z" id="path3453" inkscape:connector-curvature="0"/><path d="m -37.36,821.224 c 44.496,19.656 75.96,18.504 104.328,32.472 22.392,11.52 45,10.224 58.68,-3.888 11.592,-14.616 20.16,-15.336 37.224,-16.848 27.864,-1.728 55.152,-1.944 79.776,0.504 l 28.08,2.304 c -0.504,31.032 59.544,34.776 77.184,11.232 21.312,-24.912 50.616,-36 75.744,-54.144 L 290.816,728.272 C 256.76,809.128 129.824,830.296 112.256,766 L -37.36,821.224 z" id="path3455" inkscape:connector-curvature="0"/><path style="fill:#b77200" d="m 382.328,691.984 c 21.312,6.984 7.56,28.296 18.432,40.536 4.68,10.368 14.544,19.512 31.032,28.008 27.576,13.896 -5.544,38.808 -39.024,51.552 -40.824,13.536 -48.744,50.832 -93.456,39.816 -16.2,-5.4 -20.952,-20.088 -20.448,-42.768 5.4,-46.368 -1.08,-78.696 -0.072,-110.304 -0.072,-12.672 4.752,-14.184 28.44,-10.872 2.808,38.376 45.144,39.384 75.096,4.032 z" id="path3457" inkscape:connector-curvature="0"/><path style="fill:#f2b700" d="m 339.632,826.624 c 31.968,-12.312 64.224,-28.512 90.216,-44.496 7.992,-4.68 9.072,-16.2 -2.16,-19.8 -24.336,-13.824 -37.584,-31.104 -34.776,-53.568 0.432,-7.848 -9.216,-16.2 -11.808,-8.712 -21.24,71.424 -89.784,67.608 -80.352,-3.096 0.504,-2.088 1.008,-4.176 1.512,-6.192 -12.312,-2.52 -17.064,0.216 -16.488,9.648 l 9.504,106.2 c 2.376,24.192 22.032,29.52 44.352,20.016 z" id="path3459" inkscape:connector-curvature="0"/><path d="m 354.464,537.544 c 24.696,32.256 49.968,113.544 29.952,154.008 -23.472,46.224 -76.608,51.696 -78.912,4.248 3.312,-56.16 6.48,-114.264 -31.824,-151.704 -5.976,-46.728 -27.288,-63.864 -37.296,-93.816 l -33.264,-24.192 -69.552,9 c -2.808,17.064 -4.464,33.696 -2.016,49.824 -16.488,22.464 -28.944,45.144 -30.384,68.4 -12.456,33.336 -42.048,61.632 -36.936,127.44 16.632,17.496 39.888,33.696 59.832,50.544 25.056,21.096 11.448,45 -23.832,38.376 C 78.848,746.056 56.744,722.872 35.288,699.328 12.392,683.056 3.896,662.176 27.368,630.496 43.424,609.04 47.96,562.456 62,543.664 74.312,525.16 92.24,508.6 105.272,490.096 c 6.912,-12.168 9.072,-21.528 7.992,-35.64 l -2.952,-85.32 c -1.944,-61.92 32.112,-94.896 79.488,-93.888 53.712,0.504 97.776,37.224 98.352,103.032 4.536,32.04 -4.896,50.4 20.52,96.192 25.848,48.24 29.88,45.648 45.792,63.072 z" id="path3461" inkscape:connector-curvature="0"/><path style="fill:#c1c1bf" d="m 261.296,503.632 2.232,8.568 c -5.832,-10.512 -12.816,-28.584 -21.6,-36.504 -2.664,-2.16 -6.12,-2.088 -8.208,-0.072 -11.664,11.304 -40.608,34.488 -63.792,31.464 -17.856,-1.8 -35.28,-13.824 -39.096,-26.856 -2.016,-9.36 -1.08,-17.064 0.144,-24.912 l 109.728,-1.8 c -2.232,9.648 12.384,33.48 20.592,50.112 z" id="path3463" inkscape:connector-curvature="0"/><path style="fill:#c1c1bf" d="m 143.144,363.232 c 10.944,0 20.736,13.608 20.664,32.4 -0.072,12.6 -8.28,15.84 -14.472,21.384 -2.736,2.52 -3.384,16.128 -6.768,16.128 -10.872,0 -19.08,-19.368 -19.08,-37.512 0,-18.072 8.784,-32.4 19.656,-32.4 z" id="path3465" inkscape:connector-curvature="0"/><path style="fill:#ffffff" d="m 144.368,375.04 c 9.72,0 16.488,4.896 17.28,16.272 0.576,7.848 -1.512,20.448 -6.984,23.112 -2.52,1.224 -11.232,12.24 -14.256,12.096 C 128.096,425.944 125,402.112 125.936,390.736 126.8,379.36 134.72,375.04 144.368,375.04 z" id="path3467" inkscape:connector-curvature="0"/><path d="m 141.848,382.672 c 6.696,-0.576 12.888,7.056 13.752,16.992 0.864,9.936 -3.96,18.576 -10.656,19.152 -6.696,0.576 -12.888,-7.056 -13.752,-17.064 -0.864,-9.936 3.96,-18.504 10.656,-19.08 z" id="path3469" inkscape:connector-curvature="0"/><path style="fill:#c1c1bf" d="m 151.064,397.288 c 0.36,1.8 -1.656,2.736 -2.232,0.936 -0.576,-2.232 -1.944,-4.896 -3.744,-7.056 -1.152,-1.296 0,-2.736 1.44,-1.728 2.52,2.088 3.96,4.68 4.536,7.848 z" id="path3471" inkscape:connector-curvature="0"/><path style="fill:#c1c1bf" d="m 216.944,360.712 c 15.768,0 28.656,16.704 28.656,37.08 0,20.448 -12.888,37.08 -28.656,37.08 -15.768,0 -28.512,-16.632 -28.512,-37.08 0,-20.376 12.744,-37.08 28.512,-37.08 z" id="path3473" inkscape:connector-curvature="0"/><path style="fill:#ffffff" d="m 224.792,374.968 c 10.872,3.888 17.136,12.456 17.928,21.6 0.936,10.512 -3.312,22.392 -12.456,29.376 -2.592,1.944 -32.544,-9.864 -34.272,-14.328 -2.592,-6.408 -4.176,-18.72 -2.232,-25.992 0.792,-2.88 3.456,-7.056 7.416,-9.288 6.264,-3.528 15.48,-4.248 23.616,-1.368 z" id="path3475" inkscape:connector-curvature="0"/><path d="m 216.872,380.944 c 8.712,0 15.84,8.352 15.84,18.504 0,10.224 -7.128,18.576 -15.84,18.576 -8.712,0 -15.84,-8.352 -15.84,-18.576 0,-10.152 7.128,-18.504 15.84,-18.504 z" id="path3477" inkscape:connector-curvature="0"/><path style="fill:#c1c1bf" d="m 227.096,392.392 c 1.008,1.656 -0.648,3.384 -1.872,1.728 -1.44,-2.016 -3.816,-4.176 -6.336,-5.688 -1.656,-0.864 -1.08,-2.808 0.792,-2.232 3.24,1.08 5.688,3.168 7.416,6.192 z" id="path3479" inkscape:connector-curvature="0"/><path style="fill:#b77200" d="m 164.96,404.488 c 7.416,-2.16 19.152,-1.44 27.288,0.144 8.136,2.16 29.808,13.608 52.776,26.064 2.952,1.512 3.816,6.408 0,7.992 -5.904,0.432 4.248,14.976 -6.12,20.16 -15.552,4.032 -40.464,27.144 -52.776,29.016 -6.84,1.512 -13.896,1.728 -21.528,0 -24.048,-4.896 -30.384,-32.256 -41.688,-37.8 -3.096,-3.24 -1.512,-8.856 -0.504,-10.008 1.224,-5.832 27.288,-33.84 42.552,-35.568 z" id="path3481" inkscape:connector-curvature="0"/><path style="fill:#f2b700" d="m 185.408,405.856 c 13.032,1.44 40.68,18.072 54,24.768 3.312,1.8 3.096,7.2 0.144,8.064 -3.168,1.8 -4.104,-0.432 -6.624,-0.792 -4.032,-2.16 -10.656,3.024 -15.912,6.984 -30.312,22.896 -36.36,20.376 -60.84,17.784 -8.496,-2.088 -14.04,-4.68 -16.488,-6.696 1.8,-10.08 20.808,-48.312 27.072,-49.176 1.584,-2.088 13.176,-2.16 18.648,-0.936 z" id="path3483" inkscape:connector-curvature="0"/><path style="fill:#b77200" d="m 190.664,412.048 3.096,1.368 c 2.304,1.296 -0.504,4.752 -3.024,3.672 l -4.536,-1.584 c -2.664,-2.232 0.504,-5.4 4.464,-3.456 z" id="path3485" inkscape:connector-curvature="0"/><path style="fill:#b77200" d="m 268.568,452.368 c 4.464,2.016 10.656,4.824 13.968,7.776 2.952,3.96 4.248,7.92 3.888,11.88 -0.648,2.52 -2.304,4.32 -5.184,5.4 -3.384,0.792 -7.56,0 -9.864,-3.312 -1.512,-2.664 -6.12,-11.952 -7.416,-13.536 -1.728,-3.456 -2.016,-6.12 -1.08,-8.208 1.152,-1.08 3.168,-1.368 5.688,0 z" id="path3487" inkscape:connector-curvature="0"/><path style="fill:#c1c1bf" d="m 273.752,461.584 c 1.728,0.792 4.176,1.872 5.472,3.096 1.152,1.584 1.656,3.096 1.512,4.68 -0.216,0.936 -0.936,1.656 -2.016,2.088 -1.368,0.36 -2.952,0 -3.888,-1.296 -0.576,-1.008 -2.376,-4.68 -2.88,-5.328 -0.72,-1.368 -0.864,-2.376 -0.504,-3.24 0.504,-0.432 1.296,-0.504 2.304,0 z" id="path3489" inkscape:connector-curvature="0"/><path style="fill:#b77200" d="m 238.616,358.552 c 0.432,0.648 0.36,1.224 -0.216,1.728 -0.504,0.504 -1.224,0.432 -2.16,-0.072 l -4.608,-3.96 c -0.576,-0.504 -0.72,-1.296 -0.36,-2.16 1.008,-0.648 1.872,-0.648 2.664,0 l 4.68,4.464 z" id="path3491" inkscape:connector-curvature="0"/><path style="fill:#b77200" d="m 235.592,305.992 c 4.032,2.232 5.256,7.92 2.592,12.6 -2.592,4.608 -8.064,6.552 -12.168,4.248 -4.032,-2.304 -5.256,-7.92 -2.592,-12.6 2.592,-4.68 8.064,-6.552 12.168,-4.248 z" id="path3493" inkscape:connector-curvature="0"/><path style="fill:#b77200" d="m 374.912,680.536 c 3.384,2.592 -1.656,6.84 -3.888,5.76 -1.872,-0.648 -3.24,-2.808 -4.104,-3.888 -0.792,-1.224 -0.72,-3.24 0,-3.96 0.792,-1.008 2.808,-0.792 4.104,0.072 1.296,0.648 2.592,1.368 3.888,2.016 z" id="path3495" inkscape:connector-curvature="0"/><path style="fill:#b77200" d="m 297.44,551.512 c 41.544,21.384 52.56,60.048 34.632,112.68 -1.08,2.448 2.088,4.176 3.168,1.872 19.584,-55.728 6.192,-94.752 -36.216,-117.504 -2.16,-1.008 -3.744,1.872 -1.584,2.952 z" id="path3497" inkscape:connector-curvature="0"/><path style="fill:#b77200" d="m 72.008,569.512 c -33.696,57.744 -33.912,93.168 -9.504,111.816 1.224,0.936 1.944,-1.296 0.792,-2.16 -27,-23.688 -14.4,-63.648 10.872,-108.288 0.72,-1.296 -1.656,-2.448 -2.16,-1.368 z" id="path3499" inkscape:connector-curvature="0"/><path style="fill:#c1c1bf" d="m 289.376,586.864 c -0.144,2.304 -1.008,2.664 -2.952,0.504 -6.624,-11.52 -51.336,-35.928 -73.08,-38.664 -4.104,-1.44 -3.888,-3.312 0.144,-3.888 15.696,0 27.792,-6.912 41.472,-6.912 3.744,0.144 7.344,1.584 9.432,3.744 5.112,3.312 23.688,28.944 24.984,45.216 z" id="path3501" inkscape:connector-curvature="0"/><path style="fill:#c1c1bf" d="m 180.152,546.832 c 0.72,3.96 -16.344,-1.152 -15.408,9.864 0.288,3.024 -4.248,4.68 -4.104,0 0,-8.424 0.432,-8.28 -7.92,-9.864 -1.512,-0.072 -1.368,-2.304 0,-2.016 l 0,0 c 5.976,1.656 14.04,-1.944 13.68,-5.976 -0.144,-1.368 2.16,-1.152 2.088,0 -0.504,6.408 13.176,3.312 11.664,7.992 z" id="path3503" inkscape:connector-curvature="0"/><path style="fill:#c1c1bf" d="m 151.568,705.376 c 0.072,2.952 -2.808,2.304 -3.024,0.216 -8.352,-25.056 -4.824,-86.76 3.312,-106.632 0.576,-2.88 4.392,-2.016 3.888,0 -8.64,36.504 -8.496,74.088 -4.176,106.416 z" id="path3505" inkscape:connector-curvature="0"/><path style="fill:#b77200" d="m 51.704,684.424 c 23.976,23.4 39.672,58.824 62.928,90.864 33.84,40.752 6.84,83.016 -48.168,70.272 -27.576,-10.368 -67.248,-9.216 -99.144,-19.728 -22.392,-5.472 -23.184,-16.56 -11.736,-38.232 4.032,-13.824 4.392,-36.288 0.648,-55.008 -2.016,-14.184 4.536,-22.104 19.656,-23.76 l 0,0 c 12.816,-0.144 30.672,5.04 40.392,-22.392 7.272,-13.104 24.696,-13.464 35.424,-2.016 z" id="path3507" inkscape:connector-curvature="0"/><path style="fill:#f2b700" d="m 24.632,699.04 c -0.792,-18.072 14.688,-21.744 25.056,-10.728 18.504,22.68 35.424,47.736 50.688,76.68 24.336,39.168 4.248,77.688 -32.472,63.072 -18.216,-10.224 -61.776,-14.76 -85.248,-18.936 -15.696,-1.296 -17.784,-11.52 -11.808,-17.28 8.208,-9.432 9.072,-32.04 1.296,-51.336 -7.704,-11.952 6.768,-25.128 18.144,-19.656 C 0.8,727.048 25.64,713.08 24.632,699.04 z" id="path3509" inkscape:connector-curvature="0"/></g></g></g><g id="g3519" transform="matrix(0.67333529,0,-0.09611119,0.49520148,544.36993,191.85409)"><g id="g3521"><path style="fill:#000000;fill-opacity:0.49803922;stroke:none" id="path3523" d="m 21,5 103,0 c 8.864,0 16,7.136 16,16 l 0,153 c 0,8.864 -7.136,16 -16,16 L 21,190 C 12.136,190 5,182.864 5,174 L 5,21 C 5,12.136 12.136,5 21,5 z" inkscape:connector-curvature="0"/><path style="fill:#ffffff;fill-opacity:1;stroke:none" id="path3525" d="m 17,1 103,0 c 8.864,0 16,7.136 16,16 l 0,153 c 0,8.864 -7.136,16 -16,16 L 17,186 C 8.136,186 1,178.864 1,170 L 1,17 C 1,8.136 8.136,1 17,1 z" inkscape:connector-curvature="0"/><path style="fill:#c7891f;fill-opacity:1;stroke:none" id="path3527" d="m 19,3 103,0 c 8.864,0 16,7.136 16,16 l 0,153 c 0,8.864 -7.136,16 -16,16 L 19,188 C 10.136,188 3,180.864 3,172 L 3,19 C 3,10.136 10.136,3 19,3 z" inkscape:connector-curvature="0"/><path style="fill:url(#linearGradient3537);fill-opacity:1;stroke:none" id="path3529" d="m 18,1.9999995 103,0 c 8.864,0 16,7.136 16,16.0000005 l 0,153 c 0,8.864 -7.136,16 -16,16 L 18,187 C 9.136,187 2,179.864 2,171 L 2,18 C 2,9.1359995 9.136,1.9999995 18,1.9999995 z" inkscape:connector-curvature="0"/></g><path style="fill:url(#linearGradient3539);fill-opacity:1;stroke:none" id="path3531" d="m 22.166666,10 94.416664,0 c 8.12534,0 14.66667,6.541333 14.66667,14.666666 l 0,140.249994 c 0,8.12534 -6.54133,14.66667 -14.66667,14.66667 l -94.416664,0 C 14.041333,179.58333 7.5,173.042 7.5,164.91666 L 7.5,24.666666 C 7.5,16.541333 14.041333,10 22.166666,10 z" inkscape:connector-curvature="0"/><path style="fill:url(#pattern10642);fill-opacity:1;stroke:none" id="path3533" d="m 22.166666,10 94.416664,0 c 8.12534,0 14.66667,6.541333 14.66667,14.666666 l 0,140.249994 c 0,8.12534 -6.54133,14.66667 -14.66667,14.66667 l -94.416664,0 C 14.041333,179.58333 7.5,173.042 7.5,164.91666 L 7.5,24.666666 C 7.5,16.541333 14.041333,10 22.166666,10 z" inkscape:connector-curvature="0"/><path style="fill:url(#linearGradient3541);fill-opacity:1;stroke:none" id="path3535" d="M 22.15625,9.375 C 13.695478,9.375 6.875,16.195478 6.875,24.65625 l 0,140.25 c 0,8.46078 6.820478,15.3125 15.28125,15.3125 l 94.4375,0 c 8.46078,0 15.28125,-6.85172 15.28125,-15.3125 l 0,-140.25 C 131.875,16.195478 125.05453,9.375 116.59375,9.375 l -94.4375,0 z m 0,1.25 94.4375,0 c 7.7899,0 14.03125,6.241356 14.03125,14.03125 l 0,140.25 c 0,7.7899 -6.24135,14.0625 -14.03125,14.0625 l -94.4375,0 c -7.789894,0 -14.03125,-6.2726 -14.03125,-14.0625 l 0,-140.25 C 8.125,16.866356 14.366356,10.625 22.15625,10.625 z" inkscape:connector-curvature="0"/></g><g id="g3543" transform="matrix(0.67333529,0,-0.09611119,0.49520148,328.36993,289.85409)"><g id="g3545"><path style="fill:#000000;fill-opacity:0.49803922;stroke:none" id="path3547" d="m 21,5 103,0 c 8.864,0 16,7.136 16,16 l 0,153 c 0,8.864 -7.136,16 -16,16 L 21,190 C 12.136,190 5,182.864 5,174 L 5,21 C 5,12.136 12.136,5 21,5 z" inkscape:connector-curvature="0"/><path style="fill:#ffffff;fill-opacity:1;stroke:none" id="path3549" d="m 17,1 103,0 c 8.864,0 16,7.136 16,16 l 0,153 c 0,8.864 -7.136,16 -16,16 L 17,186 C 8.136,186 1,178.864 1,170 L 1,17 C 1,8.136 8.136,1 17,1 z" inkscape:connector-curvature="0"/><path style="fill:#c7891f;fill-opacity:1;stroke:none" id="path3551" d="m 19,3 103,0 c 8.864,0 16,7.136 16,16 l 0,153 c 0,8.864 -7.136,16 -16,16 L 19,188 C 10.136,188 3,180.864 3,172 L 3,19 C 3,10.136 10.136,3 19,3 z" inkscape:connector-curvature="0"/><path style="fill:url(#linearGradient3579);fill-opacity:1;stroke:none" id="path3553" d="m 18,1.9999995 103,0 c 8.864,0 16,7.136 16,16.0000005 l 0,153 c 0,8.864 -7.136,16 -16,16 L 18,187 C 9.136,187 2,179.864 2,171 L 2,18 C 2,9.1359995 9.136,1.9999995 18,1.9999995 z" inkscape:connector-curvature="0"/></g><path style="fill:url(#linearGradient3581);fill-opacity:1;stroke:none" id="path3555" d="m 22.166666,10 94.416664,0 c 8.12534,0 14.66667,6.541333 14.66667,14.666666 l 0,140.249994 c 0,8.12534 -6.54133,14.66667 -14.66667,14.66667 l -94.416664,0 C 14.041333,179.58333 7.5,173.042 7.5,164.91666 L 7.5,24.666666 C 7.5,16.541333 14.041333,10 22.166666,10 z" inkscape:connector-curvature="0"/><path style="fill:url(#pattern10642);fill-opacity:1;stroke:none" id="path3557" d="m 22.166666,10 94.416664,0 c 8.12534,0 14.66667,6.541333 14.66667,14.666666 l 0,140.249994 c 0,8.12534 -6.54133,14.66667 -14.66667,14.66667 l -94.416664,0 C 14.041333,179.58333 7.5,173.042 7.5,164.91666 L 7.5,24.666666 C 7.5,16.541333 14.041333,10 22.166666,10 z" inkscape:connector-curvature="0"/><path style="fill:url(#linearGradient3583);fill-opacity:1;stroke:none" id="path3559" d="M 22.15625,9.375 C 13.695478,9.375 6.875,16.195478 6.875,24.65625 l 0,140.25 c 0,8.46078 6.820478,15.3125 15.28125,15.3125 l 94.4375,0 c 8.46078,0 15.28125,-6.85172 15.28125,-15.3125 l 0,-140.25 C 131.875,16.195478 125.05453,9.375 116.59375,9.375 l -94.4375,0 z m 0,1.25 94.4375,0 c 7.7899,0 14.03125,6.241356 14.03125,14.03125 l 0,140.25 c 0,7.7899 -6.24135,14.0625 -14.03125,14.0625 l -94.4375,0 c -7.789894,0 -14.03125,-6.2726 -14.03125,-14.0625 l 0,-140.25 C 8.125,16.866356 14.366356,10.625 22.15625,10.625 z" inkscape:connector-curvature="0"/></g><g transform="matrix(0.67333529,0,-0.09611119,0.49520148,426.36993,289.85409)" id="g3561"><g id="g3563"><path inkscape:connector-curvature="0" d="m 21,5 103,0 c 8.864,0 16,7.136 16,16 l 0,153 c 0,8.864 -7.136,16 -16,16 L 21,190 C 12.136,190 5,182.864 5,174 L 5,21 C 5,12.136 12.136,5 21,5 z" id="path3565" style="fill:#000000;fill-opacity:0.49803922;stroke:none"/><path inkscape:connector-curvature="0" d="m 17,1 103,0 c 8.864,0 16,7.136 16,16 l 0,153 c 0,8.864 -7.136,16 -16,16 L 17,186 C 8.136,186 1,178.864 1,170 L 1,17 C 1,8.136 8.136,1 17,1 z" id="path3567" style="fill:#ffffff;fill-opacity:1;stroke:none"/><path inkscape:connector-curvature="0" d="m 19,3 103,0 c 8.864,0 16,7.136 16,16 l 0,153 c 0,8.864 -7.136,16 -16,16 L 19,188 C 10.136,188 3,180.864 3,172 L 3,19 C 3,10.136 10.136,3 19,3 z" id="path3569" style="fill:#c7891f;fill-opacity:1;stroke:none"/><path inkscape:connector-curvature="0" d="m 18,1.9999995 103,0 c 8.864,0 16,7.136 16,16.0000005 l 0,153 c 0,8.864 -7.136,16 -16,16 L 18,187 C 9.136,187 2,179.864 2,171 L 2,18 C 2,9.1359995 9.136,1.9999995 18,1.9999995 z" id="path3571" style="fill:url(#linearGradient3585);fill-opacity:1;stroke:none"/></g><path inkscape:connector-curvature="0" d="m 22.166666,10 94.416664,0 c 8.12534,0 14.66667,6.541333 14.66667,14.666666 l 0,140.249994 c 0,8.12534 -6.54133,14.66667 -14.66667,14.66667 l -94.416664,0 C 14.041333,179.58333 7.5,173.042 7.5,164.91666 L 7.5,24.666666 C 7.5,16.541333 14.041333,10 22.166666,10 z" id="path3573" style="fill:url(#linearGradient3587);fill-opacity:1;stroke:none"/><path inkscape:connector-curvature="0" d="m 22.166666,10 94.416664,0 c 8.12534,0 14.66667,6.541333 14.66667,14.666666 l 0,140.249994 c 0,8.12534 -6.54133,14.66667 -14.66667,14.66667 l -94.416664,0 C 14.041333,179.58333 7.5,173.042 7.5,164.91666 L 7.5,24.666666 C 7.5,16.541333 14.041333,10 22.166666,10 z" id="path3575" style="fill:url(#pattern10642);fill-opacity:1;stroke:none"/><path inkscape:connector-curvature="0" d="M 22.15625,9.375 C 13.695478,9.375 6.875,16.195478 6.875,24.65625 l 0,140.25 c 0,8.46078 6.820478,15.3125 15.28125,15.3125 l 94.4375,0 c 8.46078,0 15.28125,-6.85172 15.28125,-15.3125 l 0,-140.25 C 131.875,16.195478 125.05453,9.375 116.59375,9.375 l -94.4375,0 z m 0,1.25 94.4375,0 c 7.7899,0 14.03125,6.241356 14.03125,14.03125 l 0,140.25 c 0,7.7899 -6.24135,14.0625 -14.03125,14.0625 l -94.4375,0 c -7.789894,0 -14.03125,-6.2726 -14.03125,-14.0625 l 0,-140.25 C 8.125,16.866356 14.366356,10.625 22.15625,10.625 z" id="path3577" style="fill:url(#linearGradient3589);fill-opacity:1;stroke:none"/></g><g id="g3591" transform="matrix(0.67333529,0,-0.09611119,0.49520148,526.36993,289.85409)"><g id="g3593"><path style="fill:#000000;fill-opacity:0.49803922;stroke:none" id="path3595" d="m 21,5 103,0 c 8.864,0 16,7.136 16,16 l 0,153 c 0,8.864 -7.136,16 -16,16 L 21,190 C 12.136,190 5,182.864 5,174 L 5,21 C 5,12.136 12.136,5 21,5 z" inkscape:connector-curvature="0"/><path style="fill:#ffffff;fill-opacity:1;stroke:none" id="path3597" d="m 17,1 103,0 c 8.864,0 16,7.136 16,16 l 0,153 c 0,8.864 -7.136,16 -16,16 L 17,186 C 8.136,186 1,178.864 1,170 L 1,17 C 1,8.136 8.136,1 17,1 z" inkscape:connector-curvature="0"/><path style="fill:#c7891f;fill-opacity:1;stroke:none" id="path3599" d="m 19,3 103,0 c 8.864,0 16,7.136 16,16 l 0,153 c 0,8.864 -7.136,16 -16,16 L 19,188 C 10.136,188 3,180.864 3,172 L 3,19 C 3,10.136 10.136,3 19,3 z" inkscape:connector-curvature="0"/><path style="fill:url(#linearGradient3609);fill-opacity:1;stroke:none" id="path3601" d="m 18,1.9999995 103,0 c 8.864,0 16,7.136 16,16.0000005 l 0,153 c 0,8.864 -7.136,16 -16,16 L 18,187 C 9.136,187 2,179.864 2,171 L 2,18 C 2,9.1359995 9.136,1.9999995 18,1.9999995 z" inkscape:connector-curvature="0"/></g><path style="fill:url(#linearGradient3611);fill-opacity:1;stroke:none" id="path3603" d="m 22.166666,10 94.416664,0 c 8.12534,0 14.66667,6.541333 14.66667,14.666666 l 0,140.249994 c 0,8.12534 -6.54133,14.66667 -14.66667,14.66667 l -94.416664,0 C 14.041333,179.58333 7.5,173.042 7.5,164.91666 L 7.5,24.666666 C 7.5,16.541333 14.041333,10 22.166666,10 z" inkscape:connector-curvature="0"/><path style="fill:url(#pattern10642);fill-opacity:1;stroke:none" id="path3605" d="m 22.166666,10 94.416664,0 c 8.12534,0 14.66667,6.541333 14.66667,14.666666 l 0,140.249994 c 0,8.12534 -6.54133,14.66667 -14.66667,14.66667 l -94.416664,0 C 14.041333,179.58333 7.5,173.042 7.5,164.91666 L 7.5,24.666666 C 7.5,16.541333 14.041333,10 22.166666,10 z" inkscape:connector-curvature="0"/><path style="fill:url(#linearGradient3613);fill-opacity:1;stroke:none" id="path3607" d="M 22.15625,9.375 C 13.695478,9.375 6.875,16.195478 6.875,24.65625 l 0,140.25 c 0,8.46078 6.820478,15.3125 15.28125,15.3125 l 94.4375,0 c 8.46078,0 15.28125,-6.85172 15.28125,-15.3125 l 0,-140.25 C 131.875,16.195478 125.05453,9.375 116.59375,9.375 l -94.4375,0 z m 0,1.25 94.4375,0 c 7.7899,0 14.03125,6.241356 14.03125,14.03125 l 0,140.25 c 0,7.7899 -6.24135,14.0625 -14.03125,14.0625 l -94.4375,0 c -7.789894,0 -14.03125,-6.2726 -14.03125,-14.0625 l 0,-140.25 C 8.125,16.866356 14.366356,10.625 22.15625,10.625 z" inkscape:connector-curvature="0"/></g><g transform="matrix(0.67333529,0,-0.09611119,0.49520148,308.36993,389.85409)" id="g3615"><g id="g3617"><path inkscape:connector-curvature="0" d="m 21,5 103,0 c 8.864,0 16,7.136 16,16 l 0,153 c 0,8.864 -7.136,16 -16,16 L 21,190 C 12.136,190 5,182.864 5,174 L 5,21 C 5,12.136 12.136,5 21,5 z" id="path3619" style="fill:#000000;fill-opacity:0.49803922;stroke:none"/><path inkscape:connector-curvature="0" d="m 17,1 103,0 c 8.864,0 16,7.136 16,16 l 0,153 c 0,8.864 -7.136,16 -16,16 L 17,186 C 8.136,186 1,178.864 1,170 L 1,17 C 1,8.136 8.136,1 17,1 z" id="path3621" style="fill:#ffffff;fill-opacity:1;stroke:none"/><path inkscape:connector-curvature="0" d="m 19,3 103,0 c 8.864,0 16,7.136 16,16 l 0,153 c 0,8.864 -7.136,16 -16,16 L 19,188 C 10.136,188 3,180.864 3,172 L 3,19 C 3,10.136 10.136,3 19,3 z" id="path3623" style="fill:#c7891f;fill-opacity:1;stroke:none"/><path inkscape:connector-curvature="0" d="m 18,1.9999995 103,0 c 8.864,0 16,7.136 16,16.0000005 l 0,153 c 0,8.864 -7.136,16 -16,16 L 18,187 C 9.136,187 2,179.864 2,171 L 2,18 C 2,9.1359995 9.136,1.9999995 18,1.9999995 z" id="path3625" style="fill:url(#linearGradient3669);fill-opacity:1;stroke:none"/></g><path inkscape:connector-curvature="0" d="m 22.166666,10 94.416664,0 c 8.12534,0 14.66667,6.541333 14.66667,14.666666 l 0,140.249994 c 0,8.12534 -6.54133,14.66667 -14.66667,14.66667 l -94.416664,0 C 14.041333,179.58333 7.5,173.042 7.5,164.91666 L 7.5,24.666666 C 7.5,16.541333 14.041333,10 22.166666,10 z" id="path3627" style="fill:url(#linearGradient3671);fill-opacity:1;stroke:none"/><path inkscape:connector-curvature="0" d="m 22.166666,10 94.416664,0 c 8.12534,0 14.66667,6.541333 14.66667,14.666666 l 0,140.249994 c 0,8.12534 -6.54133,14.66667 -14.66667,14.66667 l -94.416664,0 C 14.041333,179.58333 7.5,173.042 7.5,164.91666 L 7.5,24.666666 C 7.5,16.541333 14.041333,10 22.166666,10 z" id="path3629" style="fill:url(#pattern10642);fill-opacity:1;stroke:none"/><path inkscape:connector-curvature="0" d="M 22.15625,9.375 C 13.695478,9.375 6.875,16.195478 6.875,24.65625 l 0,140.25 c 0,8.46078 6.820478,15.3125 15.28125,15.3125 l 94.4375,0 c 8.46078,0 15.28125,-6.85172 15.28125,-15.3125 l 0,-140.25 C 131.875,16.195478 125.05453,9.375 116.59375,9.375 l -94.4375,0 z m 0,1.25 94.4375,0 c 7.7899,0 14.03125,6.241356 14.03125,14.03125 l 0,140.25 c 0,7.7899 -6.24135,14.0625 -14.03125,14.0625 l -94.4375,0 c -7.789894,0 -14.03125,-6.2726 -14.03125,-14.0625 l 0,-140.25 C 8.125,16.866356 14.366356,10.625 22.15625,10.625 z" id="path3631" style="fill:url(#linearGradient3673);fill-opacity:1;stroke:none"/></g><g transform="matrix(0.67333529,0,-0.09611119,0.49520148,506.36993,389.85409)" id="g3651"><g id="g3653"><path inkscape:connector-curvature="0" d="m 21,5 103,0 c 8.864,0 16,7.136 16,16 l 0,153 c 0,8.864 -7.136,16 -16,16 L 21,190 C 12.136,190 5,182.864 5,174 L 5,21 C 5,12.136 12.136,5 21,5 z" id="path3655" style="fill:#000000;fill-opacity:0.49803922;stroke:none"/><path inkscape:connector-curvature="0" d="m 17,1 103,0 c 8.864,0 16,7.136 16,16 l 0,153 c 0,8.864 -7.136,16 -16,16 L 17,186 C 8.136,186 1,178.864 1,170 L 1,17 C 1,8.136 8.136,1 17,1 z" id="path3657" style="fill:#ffffff;fill-opacity:1;stroke:none"/><path inkscape:connector-curvature="0" d="m 19,3 103,0 c 8.864,0 16,7.136 16,16 l 0,153 c 0,8.864 -7.136,16 -16,16 L 19,188 C 10.136,188 3,180.864 3,172 L 3,19 C 3,10.136 10.136,3 19,3 z" id="path3659" style="fill:#c7891f;fill-opacity:1;stroke:none"/><path inkscape:connector-curvature="0" d="m 18,1.9999995 103,0 c 8.864,0 16,7.136 16,16.0000005 l 0,153 c 0,8.864 -7.136,16 -16,16 L 18,187 C 9.136,187 2,179.864 2,171 L 2,18 C 2,9.1359995 9.136,1.9999995 18,1.9999995 z" id="path3661" style="fill:url(#linearGradient3681);fill-opacity:1;stroke:none"/></g><path inkscape:connector-curvature="0" d="m 22.166666,10 94.416664,0 c 8.12534,0 14.66667,6.541333 14.66667,14.666666 l 0,140.249994 c 0,8.12534 -6.54133,14.66667 -14.66667,14.66667 l -94.416664,0 C 14.041333,179.58333 7.5,173.042 7.5,164.91666 L 7.5,24.666666 C 7.5,16.541333 14.041333,10 22.166666,10 z" id="path3663" style="fill:url(#linearGradient3683);fill-opacity:1;stroke:none"/><path inkscape:connector-curvature="0" d="m 22.166666,10 94.416664,0 c 8.12534,0 14.66667,6.541333 14.66667,14.666666 l 0,140.249994 c 0,8.12534 -6.54133,14.66667 -14.66667,14.66667 l -94.416664,0 C 14.041333,179.58333 7.5,173.042 7.5,164.91666 L 7.5,24.666666 C 7.5,16.541333 14.041333,10 22.166666,10 z" id="path3665" style="fill:url(#pattern10642);fill-opacity:1;stroke:none"/><path inkscape:connector-curvature="0" d="M 22.15625,9.375 C 13.695478,9.375 6.875,16.195478 6.875,24.65625 l 0,140.25 c 0,8.46078 6.820478,15.3125 15.28125,15.3125 l 94.4375,0 c 8.46078,0 15.28125,-6.85172 15.28125,-15.3125 l 0,-140.25 C 131.875,16.195478 125.05453,9.375 116.59375,9.375 l -94.4375,0 z m 0,1.25 94.4375,0 c 7.7899,0 14.03125,6.241356 14.03125,14.03125 l 0,140.25 c 0,7.7899 -6.24135,14.0625 -14.03125,14.0625 l -94.4375,0 c -7.789894,0 -14.03125,-6.2726 -14.03125,-14.0625 l 0,-140.25 C 8.125,16.866356 14.366356,10.625 22.15625,10.625 z" id="path3667" style="fill:url(#linearGradient3685);fill-opacity:1;stroke:none"/></g><g transform="matrix(0.6603512,0,-0.12816428,0.6603512,196.52778,389.66254)" id="g3687"><g transform="matrix(1.0196624,0,0,0.74990624,320.95423,4.5442209)" id="g3689"><g id="g3691"><path inkscape:connector-curvature="0" d="m 21,5 103,0 c 8.864,0 16,7.136 16,16 l 0,153 c 0,8.864 -7.136,16 -16,16 L 21,190 C 12.136,190 5,182.864 5,174 L 5,21 C 5,12.136 12.136,5 21,5 z" id="path3693" style="fill:#000000;fill-opacity:0.49803922;stroke:none"/><path inkscape:connector-curvature="0" d="m 17,1 103,0 c 8.864,0 16,7.136 16,16 l 0,153 c 0,8.864 -7.136,16 -16,16 L 17,186 C 8.136,186 1,178.864 1,170 L 1,17 C 1,8.136 8.136,1 17,1 z" id="path3695" style="fill:#ffffff;fill-opacity:1;stroke:none"/><path inkscape:connector-curvature="0" d="m 19,3 103,0 c 8.864,0 16,7.136 16,16 l 0,153 c 0,8.864 -7.136,16 -16,16 L 19,188 C 10.136,188 3,180.864 3,172 L 3,19 C 3,10.136 10.136,3 19,3 z" id="path3697" style="fill:#c7891f;fill-opacity:1;stroke:none"/><path inkscape:connector-curvature="0" d="m 18,1.9999995 103,0 c 8.864,0 16,7.136 16,16.0000005 l 0,153 c 0,8.864 -7.136,16 -16,16 L 18,187 C 9.136,187 2,179.864 2,171 L 2,18 C 2,9.1359995 9.136,1.9999995 18,1.9999995 z" id="path3699" style="fill:url(#linearGradient3781);fill-opacity:1;stroke:none"/></g><g id="g3701"><g id="g3703" transform="translate(333.5,184.5)"/><g id="g3705"/></g></g><g id="g3707" transform="matrix(0.20837128,0,0,0.20837128,327.99875,-11.051484)"><path inkscape:connector-curvature="0" transform="translate(-188.771,11.2936)" id="path3709" style="fill:#ffffff;fill-opacity:1;stroke:none" d="m 344.427,534.692 51.63,82.284 66.957,33.882 101.646,-33.075 61.31,-95.192 -6.453,-88.739 -50.017,-111.326 -23.394,-44.369 -125.041,1.613 -6.454,37.916 -43.562,73.41 -29.042,79.865 2.42,63.731 z"/><g transform="translate(107.656,-154.861)" id="g3711" style="fill:#000000;fill-opacity:1;stroke:none"><path inkscape:connector-curvature="0" id="path3713" d="m 329.336,727.552 c -14.112,-1.224 -25.2,-11.736 -26.208,-32.616 3.24,-55.44 6.48,-112.824 -31.896,-149.832 -5.976,-46.08 -27.216,-63 -37.224,-92.592 l -15.768,-11.304 18.864,-29.52 8.064,0.216 78.768,159.264 16.488,80.28 -11.088,76.104 z" style="fill:#c1c1bf"/><path inkscape:connector-curvature="0" id="path3715" d="m 136.232,439.696 c -2.376,15.552 -3.672,30.816 -1.44,45.576 -16.416,22.32 -28.872,44.856 -30.312,68.04 -12.456,33.192 -42.048,61.272 -36.936,126.792 16.632,17.352 39.888,33.48 59.832,50.256 25.056,20.952 10.152,48.6 -25.128,42.048 -7.848,-8.64 -25.632,-62.784 -59.328,-96.12 l 6.624,-43.704 31.824,-85.176 39.6,-63.36 4.392,-27.36 -5.544,-69.912 4.608,-25.56 11.808,78.48 0,0 z" style="fill:#c1c1bf"/><path inkscape:connector-curvature="0" id="path3717" d="m 115.64,341.416 c 0.936,-5.04 2.16,-9.792 3.672,-14.256 l 2.376,15.624 -6.048,-1.368 z" style="fill:#c1c1bf"/><path inkscape:connector-curvature="0" id="path3719" d="m 120.968,500.464 c -12.6,23.328 -16.992,45.792 11.952,49.752 -15.912,3.672 -35.712,18.432 -55.728,43.272 l 0.432,-50.472 23.832,-39.744 19.512,-2.808 z" style="fill:#c1c1bf"/><path inkscape:connector-curvature="0" id="path3721" d="m -33.256,818.488 c 43.776,19.656 74.664,18.576 102.528,32.472 22.032,11.592 44.28,10.224 57.672,-3.816 11.376,-14.688 19.8,-15.408 36.576,-16.92 27.432,-1.656 54.216,-1.944 78.408,0.576 l 27.648,2.232 c -0.504,31.032 58.464,34.848 75.816,11.304 20.952,-24.912 49.752,-36.072 74.448,-54.144 L 289.304,725.536 c -33.48,80.928 -158.256,102.096 -175.536,37.728 l -147.024,55.224 z" style="fill:#c1c1bf"/><path inkscape:connector-curvature="0" id="path3723" d="m 286.424,711.568 c -12.6,-0.072 -25.488,4.032 -24.48,20.592 l 4.248,44.28 38.232,-19.8 -18,-45.072 z" style="fill:#c1c1bf"/><path inkscape:connector-curvature="0" id="path3725" d="m -37.36,821.224 c 44.496,19.656 75.96,18.504 104.328,32.472 22.392,11.52 45,10.224 58.68,-3.888 11.592,-14.616 20.16,-15.336 37.224,-16.848 27.864,-1.728 55.152,-1.944 79.776,0.504 l 28.08,2.304 c -0.504,31.032 59.544,34.776 77.184,11.232 21.312,-24.912 50.616,-36 75.744,-54.144 L 290.816,728.272 C 256.76,809.128 129.824,830.296 112.256,766 L -37.36,821.224 z"/><path inkscape:connector-curvature="0" id="path3727" d="m 382.328,691.984 c 21.312,6.984 7.56,28.296 18.432,40.536 4.68,10.368 14.544,19.512 31.032,28.008 27.576,13.896 -5.544,38.808 -39.024,51.552 -40.824,13.536 -48.744,50.832 -93.456,39.816 -16.2,-5.4 -20.952,-20.088 -20.448,-42.768 5.4,-46.368 -1.08,-78.696 -0.072,-110.304 -0.072,-12.672 4.752,-14.184 28.44,-10.872 2.808,38.376 45.144,39.384 75.096,4.032 z" style="fill:#b77200"/><path inkscape:connector-curvature="0" id="path3729" d="m 339.632,826.624 c 31.968,-12.312 64.224,-28.512 90.216,-44.496 7.992,-4.68 9.072,-16.2 -2.16,-19.8 -24.336,-13.824 -37.584,-31.104 -34.776,-53.568 0.432,-7.848 -9.216,-16.2 -11.808,-8.712 -21.24,71.424 -89.784,67.608 -80.352,-3.096 0.504,-2.088 1.008,-4.176 1.512,-6.192 -12.312,-2.52 -17.064,0.216 -16.488,9.648 l 9.504,106.2 c 2.376,24.192 22.032,29.52 44.352,20.016 z" style="fill:#f2b700"/><path inkscape:connector-curvature="0" id="path3731" d="m 354.464,537.544 c 24.696,32.256 49.968,113.544 29.952,154.008 -23.472,46.224 -76.608,51.696 -78.912,4.248 3.312,-56.16 6.48,-114.264 -31.824,-151.704 -5.976,-46.728 -27.288,-63.864 -37.296,-93.816 l -33.264,-24.192 -69.552,9 c -2.808,17.064 -4.464,33.696 -2.016,49.824 -16.488,22.464 -28.944,45.144 -30.384,68.4 -12.456,33.336 -42.048,61.632 -36.936,127.44 16.632,17.496 39.888,33.696 59.832,50.544 25.056,21.096 11.448,45 -23.832,38.376 C 78.848,746.056 56.744,722.872 35.288,699.328 12.392,683.056 3.896,662.176 27.368,630.496 43.424,609.04 47.96,562.456 62,543.664 74.312,525.16 92.24,508.6 105.272,490.096 c 6.912,-12.168 9.072,-21.528 7.992,-35.64 l -2.952,-85.32 c -1.944,-61.92 32.112,-94.896 79.488,-93.888 53.712,0.504 97.776,37.224 98.352,103.032 4.536,32.04 -4.896,50.4 20.52,96.192 25.848,48.24 29.88,45.648 45.792,63.072 z"/><path inkscape:connector-curvature="0" id="path3733" d="m 261.296,503.632 2.232,8.568 c -5.832,-10.512 -12.816,-28.584 -21.6,-36.504 -2.664,-2.16 -6.12,-2.088 -8.208,-0.072 -11.664,11.304 -40.608,34.488 -63.792,31.464 -17.856,-1.8 -35.28,-13.824 -39.096,-26.856 -2.016,-9.36 -1.08,-17.064 0.144,-24.912 l 109.728,-1.8 c -2.232,9.648 12.384,33.48 20.592,50.112 z" style="fill:#c1c1bf"/><path inkscape:connector-curvature="0" id="path3735" d="m 143.144,363.232 c 10.944,0 20.736,13.608 20.664,32.4 -0.072,12.6 -8.28,15.84 -14.472,21.384 -2.736,2.52 -3.384,16.128 -6.768,16.128 -10.872,0 -19.08,-19.368 -19.08,-37.512 0,-18.072 8.784,-32.4 19.656,-32.4 z" style="fill:#c1c1bf"/><path inkscape:connector-curvature="0" id="path3737" d="m 144.368,375.04 c 9.72,0 16.488,4.896 17.28,16.272 0.576,7.848 -1.512,20.448 -6.984,23.112 -2.52,1.224 -11.232,12.24 -14.256,12.096 C 128.096,425.944 125,402.112 125.936,390.736 126.8,379.36 134.72,375.04 144.368,375.04 z" style="fill:#ffffff"/><path inkscape:connector-curvature="0" id="path3739" d="m 141.848,382.672 c 6.696,-0.576 12.888,7.056 13.752,16.992 0.864,9.936 -3.96,18.576 -10.656,19.152 -6.696,0.576 -12.888,-7.056 -13.752,-17.064 -0.864,-9.936 3.96,-18.504 10.656,-19.08 z"/><path inkscape:connector-curvature="0" id="path3741" d="m 151.064,397.288 c 0.36,1.8 -1.656,2.736 -2.232,0.936 -0.576,-2.232 -1.944,-4.896 -3.744,-7.056 -1.152,-1.296 0,-2.736 1.44,-1.728 2.52,2.088 3.96,4.68 4.536,7.848 z" style="fill:#c1c1bf"/><path inkscape:connector-curvature="0" id="path3743" d="m 216.944,360.712 c 15.768,0 28.656,16.704 28.656,37.08 0,20.448 -12.888,37.08 -28.656,37.08 -15.768,0 -28.512,-16.632 -28.512,-37.08 0,-20.376 12.744,-37.08 28.512,-37.08 z" style="fill:#c1c1bf"/><path inkscape:connector-curvature="0" id="path3745" d="m 224.792,374.968 c 10.872,3.888 17.136,12.456 17.928,21.6 0.936,10.512 -3.312,22.392 -12.456,29.376 -2.592,1.944 -32.544,-9.864 -34.272,-14.328 -2.592,-6.408 -4.176,-18.72 -2.232,-25.992 0.792,-2.88 3.456,-7.056 7.416,-9.288 6.264,-3.528 15.48,-4.248 23.616,-1.368 z" style="fill:#ffffff"/><path inkscape:connector-curvature="0" id="path3747" d="m 216.872,380.944 c 8.712,0 15.84,8.352 15.84,18.504 0,10.224 -7.128,18.576 -15.84,18.576 -8.712,0 -15.84,-8.352 -15.84,-18.576 0,-10.152 7.128,-18.504 15.84,-18.504 z"/><path inkscape:connector-curvature="0" id="path3749" d="m 227.096,392.392 c 1.008,1.656 -0.648,3.384 -1.872,1.728 -1.44,-2.016 -3.816,-4.176 -6.336,-5.688 -1.656,-0.864 -1.08,-2.808 0.792,-2.232 3.24,1.08 5.688,3.168 7.416,6.192 z" style="fill:#c1c1bf"/><path inkscape:connector-curvature="0" id="path3751" d="m 164.96,404.488 c 7.416,-2.16 19.152,-1.44 27.288,0.144 8.136,2.16 29.808,13.608 52.776,26.064 2.952,1.512 3.816,6.408 0,7.992 -5.904,0.432 4.248,14.976 -6.12,20.16 -15.552,4.032 -40.464,27.144 -52.776,29.016 -6.84,1.512 -13.896,1.728 -21.528,0 -24.048,-4.896 -30.384,-32.256 -41.688,-37.8 -3.096,-3.24 -1.512,-8.856 -0.504,-10.008 1.224,-5.832 27.288,-33.84 42.552,-35.568 z" style="fill:#b77200"/><path inkscape:connector-curvature="0" id="path3753" d="m 185.408,405.856 c 13.032,1.44 40.68,18.072 54,24.768 3.312,1.8 3.096,7.2 0.144,8.064 -3.168,1.8 -4.104,-0.432 -6.624,-0.792 -4.032,-2.16 -10.656,3.024 -15.912,6.984 -30.312,22.896 -36.36,20.376 -60.84,17.784 -8.496,-2.088 -14.04,-4.68 -16.488,-6.696 1.8,-10.08 20.808,-48.312 27.072,-49.176 1.584,-2.088 13.176,-2.16 18.648,-0.936 z" style="fill:#f2b700"/><path inkscape:connector-curvature="0" id="path3755" d="m 190.664,412.048 3.096,1.368 c 2.304,1.296 -0.504,4.752 -3.024,3.672 l -4.536,-1.584 c -2.664,-2.232 0.504,-5.4 4.464,-3.456 z" style="fill:#b77200"/><path inkscape:connector-curvature="0" id="path3757" d="m 268.568,452.368 c 4.464,2.016 10.656,4.824 13.968,7.776 2.952,3.96 4.248,7.92 3.888,11.88 -0.648,2.52 -2.304,4.32 -5.184,5.4 -3.384,0.792 -7.56,0 -9.864,-3.312 -1.512,-2.664 -6.12,-11.952 -7.416,-13.536 -1.728,-3.456 -2.016,-6.12 -1.08,-8.208 1.152,-1.08 3.168,-1.368 5.688,0 z" style="fill:#b77200"/><path inkscape:connector-curvature="0" id="path3759" d="m 273.752,461.584 c 1.728,0.792 4.176,1.872 5.472,3.096 1.152,1.584 1.656,3.096 1.512,4.68 -0.216,0.936 -0.936,1.656 -2.016,2.088 -1.368,0.36 -2.952,0 -3.888,-1.296 -0.576,-1.008 -2.376,-4.68 -2.88,-5.328 -0.72,-1.368 -0.864,-2.376 -0.504,-3.24 0.504,-0.432 1.296,-0.504 2.304,0 z" style="fill:#c1c1bf"/><path inkscape:connector-curvature="0" id="path3761" d="m 238.616,358.552 c 0.432,0.648 0.36,1.224 -0.216,1.728 -0.504,0.504 -1.224,0.432 -2.16,-0.072 l -4.608,-3.96 c -0.576,-0.504 -0.72,-1.296 -0.36,-2.16 1.008,-0.648 1.872,-0.648 2.664,0 l 4.68,4.464 z" style="fill:#b77200"/><path inkscape:connector-curvature="0" id="path3763" d="m 235.592,305.992 c 4.032,2.232 5.256,7.92 2.592,12.6 -2.592,4.608 -8.064,6.552 -12.168,4.248 -4.032,-2.304 -5.256,-7.92 -2.592,-12.6 2.592,-4.68 8.064,-6.552 12.168,-4.248 z" style="fill:#b77200"/><path inkscape:connector-curvature="0" id="path3765" d="m 374.912,680.536 c 3.384,2.592 -1.656,6.84 -3.888,5.76 -1.872,-0.648 -3.24,-2.808 -4.104,-3.888 -0.792,-1.224 -0.72,-3.24 0,-3.96 0.792,-1.008 2.808,-0.792 4.104,0.072 1.296,0.648 2.592,1.368 3.888,2.016 z" style="fill:#b77200"/><path inkscape:connector-curvature="0" id="path3767" d="m 297.44,551.512 c 41.544,21.384 52.56,60.048 34.632,112.68 -1.08,2.448 2.088,4.176 3.168,1.872 19.584,-55.728 6.192,-94.752 -36.216,-117.504 -2.16,-1.008 -3.744,1.872 -1.584,2.952 z" style="fill:#b77200"/><path inkscape:connector-curvature="0" id="path3769" d="m 72.008,569.512 c -33.696,57.744 -33.912,93.168 -9.504,111.816 1.224,0.936 1.944,-1.296 0.792,-2.16 -27,-23.688 -14.4,-63.648 10.872,-108.288 0.72,-1.296 -1.656,-2.448 -2.16,-1.368 z" style="fill:#b77200"/><path inkscape:connector-curvature="0" id="path3771" d="m 289.376,586.864 c -0.144,2.304 -1.008,2.664 -2.952,0.504 -6.624,-11.52 -51.336,-35.928 -73.08,-38.664 -4.104,-1.44 -3.888,-3.312 0.144,-3.888 15.696,0 27.792,-6.912 41.472,-6.912 3.744,0.144 7.344,1.584 9.432,3.744 5.112,3.312 23.688,28.944 24.984,45.216 z" style="fill:#c1c1bf"/><path inkscape:connector-curvature="0" id="path3773" d="m 180.152,546.832 c 0.72,3.96 -16.344,-1.152 -15.408,9.864 0.288,3.024 -4.248,4.68 -4.104,0 0,-8.424 0.432,-8.28 -7.92,-9.864 -1.512,-0.072 -1.368,-2.304 0,-2.016 l 0,0 c 5.976,1.656 14.04,-1.944 13.68,-5.976 -0.144,-1.368 2.16,-1.152 2.088,0 -0.504,6.408 13.176,3.312 11.664,7.992 z" style="fill:#c1c1bf"/><path inkscape:connector-curvature="0" id="path3775" d="m 151.568,705.376 c 0.072,2.952 -2.808,2.304 -3.024,0.216 -8.352,-25.056 -4.824,-86.76 3.312,-106.632 0.576,-2.88 4.392,-2.016 3.888,0 -8.64,36.504 -8.496,74.088 -4.176,106.416 z" style="fill:#c1c1bf"/><path inkscape:connector-curvature="0" id="path3777" d="m 51.704,684.424 c 23.976,23.4 39.672,58.824 62.928,90.864 33.84,40.752 6.84,83.016 -48.168,70.272 -27.576,-10.368 -67.248,-9.216 -99.144,-19.728 -22.392,-5.472 -23.184,-16.56 -11.736,-38.232 4.032,-13.824 4.392,-36.288 0.648,-55.008 -2.016,-14.184 4.536,-22.104 19.656,-23.76 l 0,0 c 12.816,-0.144 30.672,5.04 40.392,-22.392 7.272,-13.104 24.696,-13.464 35.424,-2.016 z" style="fill:#b77200"/><path inkscape:connector-curvature="0" id="path3779" d="m 24.632,699.04 c -0.792,-18.072 14.688,-21.744 25.056,-10.728 18.504,22.68 35.424,47.736 50.688,76.68 24.336,39.168 4.248,77.688 -32.472,63.072 -18.216,-10.224 -61.776,-14.76 -85.248,-18.936 -15.696,-1.296 -17.784,-11.52 -11.808,-17.28 8.208,-9.432 9.072,-32.04 1.296,-51.336 -7.704,-11.952 6.768,-25.128 18.144,-19.656 C 0.8,727.048 25.64,713.08 24.632,699.04 z" style="fill:#f2b700"/></g></g></g><g id="g3351" transform="matrix(0.67333529,0,-0.09611119,0.49520148,211.06561,188.07362)"><g id="g3353"><path style="fill:#000000;fill-opacity:0.49803922;stroke:none" id="path3355" d="m 21,5 103,0 c 8.864,0 16,7.136 16,16 l 0,153 c 0,8.864 -7.136,16 -16,16 L 21,190 C 12.136,190 5,182.864 5,174 L 5,21 C 5,12.136 12.136,5 21,5 z" inkscape:connector-curvature="0"/><path style="fill:#ffffff;fill-opacity:1;stroke:none" id="path3357" d="m 17,1 103,0 c 8.864,0 16,7.136 16,16 l 0,153 c 0,8.864 -7.136,16 -16,16 L 17,186 C 8.136,186 1,178.864 1,170 L 1,17 C 1,8.136 8.136,1 17,1 z" inkscape:connector-curvature="0"/><path style="fill:#c7891f;fill-opacity:1;stroke:none" id="path3359" d="m 19,3 103,0 c 8.864,0 16,7.136 16,16 l 0,153 c 0,8.864 -7.136,16 -16,16 L 19,188 C 10.136,188 3,180.864 3,172 L 3,19 C 3,10.136 10.136,3 19,3 z" inkscape:connector-curvature="0"/><path style="fill:url(#linearGradient3369);fill-opacity:1;stroke:none" id="path3361" d="m 18,1.9999995 103,0 c 8.864,0 16,7.136 16,16.0000005 l 0,153 c 0,8.864 -7.136,16 -16,16 L 18,187 C 9.136,187 2,179.864 2,171 L 2,18 C 2,9.1359995 9.136,1.9999995 18,1.9999995 z" inkscape:connector-curvature="0"/></g><path style="fill:url(#linearGradient3371);fill-opacity:1;stroke:none" id="path3363" d="m 22.166666,10 94.416664,0 c 8.12534,0 14.66667,6.541333 14.66667,14.666666 l 0,140.249994 c 0,8.12534 -6.54133,14.66667 -14.66667,14.66667 l -94.416664,0 C 14.041333,179.58333 7.5,173.042 7.5,164.91666 L 7.5,24.666666 C 7.5,16.541333 14.041333,10 22.166666,10 z" inkscape:connector-curvature="0"/><path style="fill:url(#pattern10642);fill-opacity:1;stroke:none" id="path3365" d="m 22.166666,10 94.416664,0 c 8.12534,0 14.66667,6.541333 14.66667,14.666666 l 0,140.249994 c 0,8.12534 -6.54133,14.66667 -14.66667,14.66667 l -94.416664,0 C 14.041333,179.58333 7.5,173.042 7.5,164.91666 L 7.5,24.666666 C 7.5,16.541333 14.041333,10 22.166666,10 z" inkscape:connector-curvature="0"/><path style="fill:url(#linearGradient3373);fill-opacity:1;stroke:none" id="path3367" d="M 22.15625,9.375 C 13.695478,9.375 6.875,16.195478 6.875,24.65625 l 0,140.25 c 0,8.46078 6.820478,15.3125 15.28125,15.3125 l 94.4375,0 c 8.46078,0 15.28125,-6.85172 15.28125,-15.3125 l 0,-140.25 C 131.875,16.195478 125.05453,9.375 116.59375,9.375 l -94.4375,0 z m 0,1.25 94.4375,0 c 7.7899,0 14.03125,6.241356 14.03125,14.03125 l 0,140.25 c 0,7.7899 -6.24135,14.0625 -14.03125,14.0625 l -94.4375,0 c -7.789894,0 -14.03125,-6.2726 -14.03125,-14.0625 l 0,-140.25 C 8.125,16.866356 14.366356,10.625 22.15625,10.625 z" inkscape:connector-curvature="0"/></g><g transform="matrix(0.66576967,0.10065364,-0.16905656,0.47527018,204.94945,184.8261)" id="g3375"><g id="g3377"><path inkscape:connector-curvature="0" d="m 21,5 103,0 c 8.864,0 16,7.136 16,16 l 0,153 c 0,8.864 -7.136,16 -16,16 L 21,190 C 12.136,190 5,182.864 5,174 L 5,21 C 5,12.136 12.136,5 21,5 z" id="path3379" style="fill:#000000;fill-opacity:0.49803922;stroke:none"/><path inkscape:connector-curvature="0" d="m 17,1 103,0 c 8.864,0 16,7.136 16,16 l 0,153 c 0,8.864 -7.136,16 -16,16 L 17,186 C 8.136,186 1,178.864 1,170 L 1,17 C 1,8.136 8.136,1 17,1 z" id="path3381" style="fill:#ffffff;fill-opacity:1;stroke:none"/><path inkscape:connector-curvature="0" d="m 19,3 103,0 c 8.864,0 16,7.136 16,16 l 0,153 c 0,8.864 -7.136,16 -16,16 L 19,188 C 10.136,188 3,180.864 3,172 L 3,19 C 3,10.136 10.136,3 19,3 z" id="path3383" style="fill:#c7891f;fill-opacity:1;stroke:none"/><path inkscape:connector-curvature="0" d="m 18,1.9999995 103,0 c 8.864,0 16,7.136 16,16.0000005 l 0,153 c 0,8.864 -7.136,16 -16,16 L 18,187 C 9.136,187 2,179.864 2,171 L 2,18 C 2,9.1359995 9.136,1.9999995 18,1.9999995 z" id="path3385" style="fill:url(#linearGradient3393);fill-opacity:1;stroke:none"/></g><path inkscape:connector-curvature="0" d="m 22.166666,10 94.416664,0 c 8.12534,0 14.66667,6.541333 14.66667,14.666666 l 0,140.249994 c 0,8.12534 -6.54133,14.66667 -14.66667,14.66667 l -94.416664,0 C 14.041333,179.58333 7.5,173.042 7.5,164.91666 L 7.5,24.666666 C 7.5,16.541333 14.041333,10 22.166666,10 z" id="path3387" style="fill:url(#linearGradient3395);fill-opacity:1;stroke:none"/><path inkscape:connector-curvature="0" d="m 22.166666,10 94.416664,0 c 8.12534,0 14.66667,6.541333 14.66667,14.666666 l 0,140.249994 c 0,8.12534 -6.54133,14.66667 -14.66667,14.66667 l -94.416664,0 C 14.041333,179.58333 7.5,173.042 7.5,164.91666 L 7.5,24.666666 C 7.5,16.541333 14.041333,10 22.166666,10 z" id="path3389" style="fill:url(#pattern10642);fill-opacity:1;stroke:none"/><path inkscape:connector-curvature="0" d="M 22.15625,9.375 C 13.695478,9.375 6.875,16.195478 6.875,24.65625 l 0,140.25 c 0,8.46078 6.820478,15.3125 15.28125,15.3125 l 94.4375,0 c 8.46078,0 15.28125,-6.85172 15.28125,-15.3125 l 0,-140.25 C 131.875,16.195478 125.05453,9.375 116.59375,9.375 l -94.4375,0 z m 0,1.25 94.4375,0 c 7.7899,0 14.03125,6.241356 14.03125,14.03125 l 0,140.25 c 0,7.7899 -6.24135,14.0625 -14.03125,14.0625 l -94.4375,0 c -7.789894,0 -14.03125,-6.2726 -14.03125,-14.0625 l 0,-140.25 C 8.125,16.866356 14.366356,10.625 22.15625,10.625 z" id="path3391" style="fill:url(#linearGradient3397);fill-opacity:1;stroke:none"/></g><g id="g3400" transform="matrix(0.65859804,0.14010365,-0.19704623,0.46436478,200.34759,163.63517)"><g id="g3402"><path style="fill:#000000;fill-opacity:0.49803922;stroke:none" id="path3404" d="m 21,5 103,0 c 8.864,0 16,7.136 16,16 l 0,153 c 0,8.864 -7.136,16 -16,16 L 21,190 C 12.136,190 5,182.864 5,174 L 5,21 C 5,12.136 12.136,5 21,5 z" inkscape:connector-curvature="0"/><path style="fill:#ffffff;fill-opacity:1;stroke:none" id="path3406" d="m 17,1 103,0 c 8.864,0 16,7.136 16,16 l 0,153 c 0,8.864 -7.136,16 -16,16 L 17,186 C 8.136,186 1,178.864 1,170 L 1,17 C 1,8.136 8.136,1 17,1 z" inkscape:connector-curvature="0"/><path style="fill:#c7891f;fill-opacity:1;stroke:none" id="path3408" d="m 19,3 103,0 c 8.864,0 16,7.136 16,16 l 0,153 c 0,8.864 -7.136,16 -16,16 L 19,188 C 10.136,188 3,180.864 3,172 L 3,19 C 3,10.136 10.136,3 19,3 z" inkscape:connector-curvature="0"/><path style="fill:url(#linearGradient3418);fill-opacity:1;stroke:none" id="path3410" d="m 18,1.9999995 103,0 c 8.864,0 16,7.136 16,16.0000005 l 0,153 c 0,8.864 -7.136,16 -16,16 L 18,187 C 9.136,187 2,179.864 2,171 L 2,18 C 2,9.1359995 9.136,1.9999995 18,1.9999995 z" inkscape:connector-curvature="0"/></g><path style="fill:url(#linearGradient3420);fill-opacity:1;stroke:none" id="path3412" d="m 22.166666,10 94.416664,0 c 8.12534,0 14.66667,6.541333 14.66667,14.666666 l 0,140.249994 c 0,8.12534 -6.54133,14.66667 -14.66667,14.66667 l -94.416664,0 C 14.041333,179.58333 7.5,173.042 7.5,164.91666 L 7.5,24.666666 C 7.5,16.541333 14.041333,10 22.166666,10 z" inkscape:connector-curvature="0"/><path style="fill:url(#pattern10642);fill-opacity:1;stroke:none" id="path3414" d="m 22.166666,10 94.416664,0 c 8.12534,0 14.66667,6.541333 14.66667,14.666666 l 0,140.249994 c 0,8.12534 -6.54133,14.66667 -14.66667,14.66667 l -94.416664,0 C 14.041333,179.58333 7.5,173.042 7.5,164.91666 L 7.5,24.666666 C 7.5,16.541333 14.041333,10 22.166666,10 z" inkscape:connector-curvature="0"/><path style="fill:url(#linearGradient3422);fill-opacity:1;stroke:none" id="path3416" d="M 22.15625,9.375 C 13.695478,9.375 6.875,16.195478 6.875,24.65625 l 0,140.25 c 0,8.46078 6.820478,15.3125 15.28125,15.3125 l 94.4375,0 c 8.46078,0 15.28125,-6.85172 15.28125,-15.3125 l 0,-140.25 C 131.875,16.195478 125.05453,9.375 116.59375,9.375 l -94.4375,0 z m 0,1.25 94.4375,0 c 7.7899,0 14.03125,6.241356 14.03125,14.03125 l 0,140.25 c 0,7.7899 -6.24135,14.0625 -14.03125,14.0625 l -94.4375,0 c -7.789894,0 -14.03125,-6.2726 -14.03125,-14.0625 l 0,-140.25 C 8.125,16.866356 14.366356,10.625 22.15625,10.625 z" inkscape:connector-curvature="0"/></g><g transform="matrix(0.67333529,0,-0.09611119,0.49520148,636.88167,430.0212)" id="g3424"><g id="g3426"><path inkscape:connector-curvature="0" d="m 21,5 103,0 c 8.864,0 16,7.136 16,16 l 0,153 c 0,8.864 -7.136,16 -16,16 L 21,190 C 12.136,190 5,182.864 5,174 L 5,21 C 5,12.136 12.136,5 21,5 z" id="path3428" style="fill:#000000;fill-opacity:0.49803922;stroke:none"/><path inkscape:connector-curvature="0" d="m 17,1 103,0 c 8.864,0 16,7.136 16,16 l 0,153 c 0,8.864 -7.136,16 -16,16 L 17,186 C 8.136,186 1,178.864 1,170 L 1,17 C 1,8.136 8.136,1 17,1 z" id="path3430" style="fill:#ffffff;fill-opacity:1;stroke:none"/><path inkscape:connector-curvature="0" d="m 19,3 103,0 c 8.864,0 16,7.136 16,16 l 0,153 c 0,8.864 -7.136,16 -16,16 L 19,188 C 10.136,188 3,180.864 3,172 L 3,19 C 3,10.136 10.136,3 19,3 z" id="path3432" style="fill:#c7891f;fill-opacity:1;stroke:none"/><path inkscape:connector-curvature="0" d="m 18,1.9999995 103,0 c 8.864,0 16,7.136 16,16.0000005 l 0,153 c 0,8.864 -7.136,16 -16,16 L 18,187 C 9.136,187 2,179.864 2,171 L 2,18 C 2,9.1359995 9.136,1.9999995 18,1.9999995 z" id="path3434" style="fill:url(#linearGradient3478);fill-opacity:1;stroke:none"/></g><path inkscape:connector-curvature="0" d="m 22.166666,10 94.416664,0 c 8.12534,0 14.66667,6.541333 14.66667,14.666666 l 0,140.249994 c 0,8.12534 -6.54133,14.66667 -14.66667,14.66667 l -94.416664,0 C 14.041333,179.58333 7.5,173.042 7.5,164.91666 L 7.5,24.666666 C 7.5,16.541333 14.041333,10 22.166666,10 z" id="path3436" style="fill:url(#linearGradient3480);fill-opacity:1;stroke:none"/><path inkscape:connector-curvature="0" d="m 22.166666,10 94.416664,0 c 8.12534,0 14.66667,6.541333 14.66667,14.666666 l 0,140.249994 c 0,8.12534 -6.54133,14.66667 -14.66667,14.66667 l -94.416664,0 C 14.041333,179.58333 7.5,173.042 7.5,164.91666 L 7.5,24.666666 C 7.5,16.541333 14.041333,10 22.166666,10 z" id="path3438" style="fill:url(#pattern10642);fill-opacity:1;stroke:none"/><path inkscape:connector-curvature="0" d="M 22.15625,9.375 C 13.695478,9.375 6.875,16.195478 6.875,24.65625 l 0,140.25 c 0,8.46078 6.820478,15.3125 15.28125,15.3125 l 94.4375,0 c 8.46078,0 15.28125,-6.85172 15.28125,-15.3125 l 0,-140.25 C 131.875,16.195478 125.05453,9.375 116.59375,9.375 l -94.4375,0 z m 0,1.25 94.4375,0 c 7.7899,0 14.03125,6.241356 14.03125,14.03125 l 0,140.25 c 0,7.7899 -6.24135,14.0625 -14.03125,14.0625 l -94.4375,0 c -7.789894,0 -14.03125,-6.2726 -14.03125,-14.0625 l 0,-140.25 C 8.125,16.866356 14.366356,10.625 22.15625,10.625 z" id="path3440" style="fill:url(#linearGradient3482);fill-opacity:1;stroke:none"/></g><g id="g3442" transform="matrix(0.66576967,0.10065364,-0.16905656,0.47527018,630.76551,426.77368)"><g id="g3444"><path style="fill:#000000;fill-opacity:0.49803922;stroke:none" id="path3446" d="m 21,5 103,0 c 8.864,0 16,7.136 16,16 l 0,153 c 0,8.864 -7.136,16 -16,16 L 21,190 C 12.136,190 5,182.864 5,174 L 5,21 C 5,12.136 12.136,5 21,5 z" inkscape:connector-curvature="0"/><path style="fill:#ffffff;fill-opacity:1;stroke:none" id="path3448" d="m 17,1 103,0 c 8.864,0 16,7.136 16,16 l 0,153 c 0,8.864 -7.136,16 -16,16 L 17,186 C 8.136,186 1,178.864 1,170 L 1,17 C 1,8.136 8.136,1 17,1 z" inkscape:connector-curvature="0"/><path style="fill:#c7891f;fill-opacity:1;stroke:none" id="path3450" d="m 19,3 103,0 c 8.864,0 16,7.136 16,16 l 0,153 c 0,8.864 -7.136,16 -16,16 L 19,188 C 10.136,188 3,180.864 3,172 L 3,19 C 3,10.136 10.136,3 19,3 z" inkscape:connector-curvature="0"/><path style="fill:url(#linearGradient3484);fill-opacity:1;stroke:none" id="path3452" d="m 18,1.9999995 103,0 c 8.864,0 16,7.136 16,16.0000005 l 0,153 c 0,8.864 -7.136,16 -16,16 L 18,187 C 9.136,187 2,179.864 2,171 L 2,18 C 2,9.1359995 9.136,1.9999995 18,1.9999995 z" inkscape:connector-curvature="0"/></g><path style="fill:url(#linearGradient3486);fill-opacity:1;stroke:none" id="path3454" d="m 22.166666,10 94.416664,0 c 8.12534,0 14.66667,6.541333 14.66667,14.666666 l 0,140.249994 c 0,8.12534 -6.54133,14.66667 -14.66667,14.66667 l -94.416664,0 C 14.041333,179.58333 7.5,173.042 7.5,164.91666 L 7.5,24.666666 C 7.5,16.541333 14.041333,10 22.166666,10 z" inkscape:connector-curvature="0"/><path style="fill:url(#pattern10642);fill-opacity:1;stroke:none" id="path3456" d="m 22.166666,10 94.416664,0 c 8.12534,0 14.66667,6.541333 14.66667,14.666666 l 0,140.249994 c 0,8.12534 -6.54133,14.66667 -14.66667,14.66667 l -94.416664,0 C 14.041333,179.58333 7.5,173.042 7.5,164.91666 L 7.5,24.666666 C 7.5,16.541333 14.041333,10 22.166666,10 z" inkscape:connector-curvature="0"/><path style="fill:url(#linearGradient3488);fill-opacity:1;stroke:none" id="path3458" d="M 22.15625,9.375 C 13.695478,9.375 6.875,16.195478 6.875,24.65625 l 0,140.25 c 0,8.46078 6.820478,15.3125 15.28125,15.3125 l 94.4375,0 c 8.46078,0 15.28125,-6.85172 15.28125,-15.3125 l 0,-140.25 C 131.875,16.195478 125.05453,9.375 116.59375,9.375 l -94.4375,0 z m 0,1.25 94.4375,0 c 7.7899,0 14.03125,6.241356 14.03125,14.03125 l 0,140.25 c 0,7.7899 -6.24135,14.0625 -14.03125,14.0625 l -94.4375,0 c -7.789894,0 -14.03125,-6.2726 -14.03125,-14.0625 l 0,-140.25 C 8.125,16.866356 14.366356,10.625 22.15625,10.625 z" inkscape:connector-curvature="0"/></g><g transform="matrix(0.65859804,0.14010365,-0.19704623,0.46436478,630.16365,409.58275)" id="g3460"><g id="g3462"><path inkscape:connector-curvature="0" d="m 21,5 103,0 c 8.864,0 16,7.136 16,16 l 0,153 c 0,8.864 -7.136,16 -16,16 L 21,190 C 12.136,190 5,182.864 5,174 L 5,21 C 5,12.136 12.136,5 21,5 z" id="path3464" style="fill:#000000;fill-opacity:0.49803922;stroke:none"/><path inkscape:connector-curvature="0" d="m 17,1 103,0 c 8.864,0 16,7.136 16,16 l 0,153 c 0,8.864 -7.136,16 -16,16 L 17,186 C 8.136,186 1,178.864 1,170 L 1,17 C 1,8.136 8.136,1 17,1 z" id="path3466" style="fill:#ffffff;fill-opacity:1;stroke:none"/><path inkscape:connector-curvature="0" d="m 19,3 103,0 c 8.864,0 16,7.136 16,16 l 0,153 c 0,8.864 -7.136,16 -16,16 L 19,188 C 10.136,188 3,180.864 3,172 L 3,19 C 3,10.136 10.136,3 19,3 z" id="path3468" style="fill:#c7891f;fill-opacity:1;stroke:none"/><path inkscape:connector-curvature="0" d="m 18,1.9999995 103,0 c 8.864,0 16,7.136 16,16.0000005 l 0,153 c 0,8.864 -7.136,16 -16,16 L 18,187 C 9.136,187 2,179.864 2,171 L 2,18 C 2,9.1359995 9.136,1.9999995 18,1.9999995 z" id="path3470" style="fill:url(#linearGradient3490);fill-opacity:1;stroke:none"/></g><path inkscape:connector-curvature="0" d="m 22.166666,10 94.416664,0 c 8.12534,0 14.66667,6.541333 14.66667,14.666666 l 0,140.249994 c 0,8.12534 -6.54133,14.66667 -14.66667,14.66667 l -94.416664,0 C 14.041333,179.58333 7.5,173.042 7.5,164.91666 L 7.5,24.666666 C 7.5,16.541333 14.041333,10 22.166666,10 z" id="path3472" style="fill:url(#linearGradient3492);fill-opacity:1;stroke:none"/><path inkscape:connector-curvature="0" d="m 22.166666,10 94.416664,0 c 8.12534,0 14.66667,6.541333 14.66667,14.666666 l 0,140.249994 c 0,8.12534 -6.54133,14.66667 -14.66667,14.66667 l -94.416664,0 C 14.041333,179.58333 7.5,173.042 7.5,164.91666 L 7.5,24.666666 C 7.5,16.541333 14.041333,10 22.166666,10 z" id="path3474" style="fill:url(#pattern10642);fill-opacity:1;stroke:none"/><path inkscape:connector-curvature="0" d="M 22.15625,9.375 C 13.695478,9.375 6.875,16.195478 6.875,24.65625 l 0,140.25 c 0,8.46078 6.820478,15.3125 15.28125,15.3125 l 94.4375,0 c 8.46078,0 15.28125,-6.85172 15.28125,-15.3125 l 0,-140.25 C 131.875,16.195478 125.05453,9.375 116.59375,9.375 l -94.4375,0 z m 0,1.25 94.4375,0 c 7.7899,0 14.03125,6.241356 14.03125,14.03125 l 0,140.25 c 0,7.7899 -6.24135,14.0625 -14.03125,14.0625 l -94.4375,0 c -7.789894,0 -14.03125,-6.2726 -14.03125,-14.0625 l 0,-140.25 C 8.125,16.866356 14.366356,10.625 22.15625,10.625 z" id="path3476" style="fill:url(#linearGradient3494);fill-opacity:1;stroke:none"/></g></g>
</svg>